<?xml version="1.0" standalone="no"?>
<!DOCTYPE svg PUBLIC "-//W3C//DTD SVG 1.1//EN" "http://www.w3.org/Graphics/SVG/1.1/DTD/svg11.dtd" >
<svg xmlns="http://www.w3.org/2000/svg">
<defs>
  <font id="lws-icons" horiz-adv-x="256">
    <font-face font-family="lws-icons"
      units-per-em="256" ascent="256"
      descent="0" />
    <missing-glyph horiz-adv-x="0" />
    <glyph glyph-name="gift"
      unicode="&#xE900;"
      horiz-adv-x="256" d="M115.328 214.528C118.016 211.2 116.736 208.896 112.384 209.408L80.256 213.632C77.696 213.504 75.52 215.552 75.392 218.112C75.392 219.264 75.776 220.544 76.544 221.44L87.04 238.08C88.576 240.64 91.904 241.408 94.336 239.872C95.104 239.488 95.744 238.848 96.128 238.08L115.328 214.528zM143.616 210.432C139.648 209.152 137.856 211.072 139.648 214.912L156.16 250.624C157.056 253.568 160.128 255.36 163.072 254.464C163.328 254.336 163.712 254.208 163.968 254.08L165.504 253.056L190.976 232.576C194.176 230.016 193.664 226.816 189.696 225.536L143.616 210.432zM242.688 198.784H136.704V151.808H242.688C249.216 151.808 254.464 157.056 254.464 163.584V187.008C254.464 193.536 249.088 198.784 242.688 198.784zM101.888 135.168H13.824V18.304C13.952 8.832 21.632 1.28 31.104 1.28H119.936V135.168H101.888zM225.024 135.168H136.704V1.28H225.024C234.496 1.024 242.304 8.576 242.56 18.048V135.168H225.024zM13.312 198.784H119.296V151.808H13.312C6.784 151.808 1.536 157.056 1.536 163.584V187.008C1.536 193.536 6.912 198.784 13.312 198.784z" />
    <glyph glyph-name="pencil"
      unicode="&#xEA02;"
      horiz-adv-x="256" d="M162.344 216L33.172 86.828A4 4 0 0 1 32.164 85.128L12.164 17.128A4 4 0 0 1 17.128 12.164L85.128 32.164A4 4 0 0 1 86.828 33.172L216 162.344zM238.14 212.768L212.768 238.14A20.024 20.024 0 0 1 184.484 238.14L168 221.656L221.656 168L238.14 184.484A20.024 20.024 0 0 1 238.14 212.768z" />
    <glyph glyph-name="bin"
      unicode="&#xEA03;"
      horiz-adv-x="256" d="M40 188V32A24 24 0 0 1 64 8H192A24 24 0 0 1 216 32V188zM92 60A4 4 0 0 0 84 60V136A4 4 0 0 0 92 136zM132 60A4 4 0 0 0 124 60V136A4 4 0 0 0 132 136zM172 60A4 4 0 0 0 164 60V136A4 4 0 0 0 172 136zM240 220H171.016L163.844 245.1A4 4 0 0 1 160 248H96A4 4 0 0 1 92.156 245.1L84.984 220H16A4 4 0 0 1 12 216V200A4 4 0 0 1 16 196H240A4 4 0 0 1 244 200V216A4 4 0 0 1 240 220z" />
    <glyph glyph-name="checkmark"
      unicode="&#xEA04;"
      horiz-adv-x="256" d="M246.828 194.828L218.828 222.828A4 4 0 0 1 213.172 222.828L92 101.656L42.828 150.828A4 4 0 0 1 37.172 150.828L9.172 122.828A4 4 0 0 1 9.172 117.172L89.172 37.172A4 4 0 0 1 94.828 37.172L246.828 189.172A4 4 0 0 1 246.828 194.828z" />
    <glyph glyph-name="cross"
      unicode="&#xEA05;"
      horiz-adv-x="256" d="M221.34 68.604L161.94 128L221.34 187.396A4 4 0 0 1 221.34 193.052L193.052 221.34A4 4 0 0 1 187.396 221.34L128 161.94L68.604 221.34A4 4 0 0 1 62.948 221.34L34.66 193.052A4 4 0 0 1 34.66 187.396L94.06 128L34.66 68.604A4 4 0 0 1 34.66 62.948L62.948 34.66A4 4 0 0 1 68.604 34.66L128 94.06L187.396 34.66A4 4 0 0 1 193.052 34.66L221.34 62.948A4 4 0 0 1 221.34 68.604z" />
    <glyph glyph-name="dropper"
      unicode="&#xEA09;"
      horiz-adv-x="256" d="M208.256 142.72L200.448 150.528L245.76 195.84C259.456 209.536 259.456 232.064 245.76 245.76S209.536 259.456 195.84 245.76L150.656 200.576L142.848 208.384C135.168 216.064 122.496 216.064 114.816 208.384C107.136 200.704 107.136 188.032 114.816 180.352L124.928 170.24L20.48 65.664C10.112 55.296 8.448 39.68 15.104 27.52L2.56 14.976C-0.896 11.52 -0.896 5.888 2.56 2.56C6.016 -0.896 11.648 -0.896 14.976 2.56L27.392 14.976C39.552 8.192 55.168 9.984 65.536 20.352L169.984 124.8L180.096 114.688C187.776 107.008 200.448 107.008 208.128 114.688C216.064 122.24 216.064 135.04 208.256 142.72zM60.928 24.832C51.072 14.976 34.944 14.976 25.088 24.832C15.232 34.688 15.232 50.816 25.088 60.672L129.536 165.12L165.376 129.28L60.928 24.832zM60.672 89.472L29.952 58.368C22.272 50.688 22.272 37.76 29.952 30.08S50.304 22.656 57.984 30.336L116.864 89.472H60.672z" />
    <glyph glyph-name="checkbox-checked"
      unicode="&#xEA0A;"
      horiz-adv-x="256" d="M202.6666666666667 224H53.3333333333333C41.5466666666667 224 32 214.4533333333333 32 202.6666666666667V53.3333333333334C32 41.5466666666667 41.5466666666667 32 53.3333333333333 32H202.6666666666666C214.4533333333333 32 224 41.5466666666667 224 53.3333333333334V202.6666666666667C224 214.4533333333333 214.4533333333333 224 202.6666666666666 224zM106.6666666666667 74.6666666666667L53.3333333333333 128L68.4266666666667 143.0933333333333L106.6666666666667 104.8533333333334L187.5733333333333 185.76L202.6666666666667 170.6666666666667L106.6666666666667 74.6666666666667z" />
    <glyph glyph-name="checkbox-unchecked"
      unicode="&#xEA0B;"
      horiz-adv-x="256" d="M202.6666666666667 202.6666666666667V53.3333333333334H53.3333333333333V202.6666666666667H202.6666666666666M202.6666666666666 224H53.3333333333333C41.5466666666667 224 32 214.4533333333333 32 202.6666666666667V53.3333333333334C32 41.5466666666667 41.5466666666667 32 53.3333333333333 32H202.6666666666666C214.4533333333333 32 224 41.5466666666667 224 53.3333333333334V202.6666666666667C224 214.4533333333333 214.4533333333333 224 202.6666666666666 224z" />
    <glyph glyph-name="arrow-up"
      unicode="&#xEA0C;"
      horiz-adv-x="256" d="M120.4586666666667 247.5413333333334L38.2453333333333 165.3333333333334L53.3333333333333 150.2453333333334L117.3333333333333 214.2453333333334V5.3333333333333H138.6666666666667V214.2453333333334L202.6666666666667 150.2453333333334L217.7546666666667 165.3333333333334L135.5413333333334 247.5413333333334C131.3813333333333 251.7066666666667 124.6186666666667 251.7066666666667 120.4586666666667 247.5413333333334z" />
    <glyph glyph-name="arrow-down"
      unicode="&#xEA0D;"
      horiz-adv-x="256" d="M138.6666666666667 41.7546666666667V250.6666666666667H117.3333333333333V41.7546666666667L53.3333333333333 105.7546666666667L38.2453333333333 90.6666666666667L120.4586666666667 8.4586666666667C122.5386666666667 6.3733333333333 125.2693333333333 5.3333333333333 128 5.3333333333333S133.4613333333333 6.3733333333333 135.5413333333334 8.4586666666667L217.7546666666667 90.6666666666667L202.6666666666667 105.7546666666667L138.6666666666667 41.7546666666667z" />
    <glyph glyph-name="arrow-left"
      unicode="&#xEA0E;"
      horiz-adv-x="256" d="M250.6666666666667 138.6666666666667H41.7493333333333L105.7493333333333 202.6666666666667L90.6666666666667 217.7546666666667L8.4586666666667 135.5413333333334C4.2933333333333 131.376 4.2933333333333 124.624 8.4586666666667 120.4586666666667L90.6666666666667 38.2453333333334L105.7493333333333 53.3333333333333L41.7493333333333 117.3333333333334H250.6666666666667V138.6666666666667z" />
    <glyph glyph-name="arrow-right"
      unicode="&#xEA0F;"
      horiz-adv-x="256" d="M165.3333333333333 217.7546666666667L150.2506666666667 202.6666666666667L214.2506666666667 138.6666666666667H5.3333333333333V117.3333333333334H214.2506666666667L150.2506666666667 53.3333333333333L165.3333333333333 38.2453333333334L247.5413333333333 120.4586666666667C251.7066666666667 124.624 251.7066666666667 131.376 247.5413333333333 135.5413333333334L165.3333333333333 217.7546666666667z" />
    <glyph glyph-name="nav-down"
      unicode="&#xEA10;"
      horiz-adv-x="256" d="M249.104 169.104L211.7706666666667 206.4373333333334C209.6853333333334 208.5226666666667 206.3146666666667 208.5226666666667 204.2293333333333 206.4373333333334L128 130.208L51.7706666666667 206.4373333333334C49.6853333333333 208.5226666666667 46.3146666666667 208.5226666666667 44.2293333333333 206.4373333333334L6.896 169.104C4.8106666666667 167.0186666666667 4.8106666666667 163.648 6.896 161.5626666666667L124.2293333333333 44.2293333333334C125.2693333333333 43.1893333333333 126.6346666666667 42.6666666666667 128 42.6666666666667S130.7306666666667 43.1893333333334 131.7706666666667 44.2293333333334L249.104 161.5626666666667C251.1893333333333 163.648 251.1893333333333 167.0186666666667 249.104 169.104z" />
    <glyph glyph-name="nav-left"
      unicode="&#xEA11;"
      horiz-adv-x="256" d="M206.4373333333333 211.7706666666667L169.104 249.104C167.0186666666667 251.1893333333334 163.648 251.1893333333334 161.5626666666667 249.104L44.2293333333333 131.7706666666667C42.144 129.6853333333334 42.144 126.3146666666667 44.2293333333333 124.2293333333333L161.5626666666667 6.896C162.6026666666667 5.856 163.968 5.3333333333333 165.3333333333333 5.3333333333333S168.064 5.856 169.104 6.896L206.4373333333333 44.2293333333333C208.5226666666666 46.3146666666667 208.5226666666666 49.6853333333333 206.4373333333333 51.7706666666667L130.208 128L206.4373333333333 204.2293333333333C208.5226666666667 206.3146666666667 208.5226666666667 209.6853333333334 206.4373333333333 211.7706666666667z" />
    <glyph glyph-name="nav-right"
      unicode="&#xEA12;"
      horiz-adv-x="256" d="M94.4373333333333 249.104C92.352 251.1893333333334 88.9813333333333 251.1893333333334 86.896 249.104L49.5626666666667 211.7706666666667C47.4773333333333 209.6853333333334 47.4773333333333 206.3146666666667 49.5626666666667 204.2293333333333L125.792 128L49.5626666666667 51.7706666666667C47.4773333333333 49.6853333333333 47.4773333333333 46.3146666666667 49.5626666666667 44.2293333333333L86.896 6.896C87.936 5.856 89.3013333333333 5.3333333333333 90.6666666666667 5.3333333333333S93.3973333333333 5.856 94.4373333333333 6.896L211.7706666666667 124.2293333333333C213.856 126.3146666666667 213.856 129.6853333333334 211.7706666666667 131.7706666666667L94.4373333333333 249.104z" />
    <glyph glyph-name="nav-up"
      unicode="&#xEA13;"
      horiz-adv-x="256" d="M131.7706666666667 211.7706666666667C129.6853333333334 213.856 126.3146666666667 213.856 124.2293333333334 211.7706666666667L6.896 94.4373333333334C4.8106666666667 92.352 4.8106666666667 88.9813333333334 6.896 86.896L44.2293333333333 49.5626666666667C46.3146666666667 47.4773333333334 49.6853333333333 47.4773333333334 51.7706666666667 49.5626666666667L128 125.792L204.2293333333333 49.5626666666667C205.2693333333333 48.5226666666667 206.6346666666667 48 208 48S210.7306666666667 48.5226666666667 211.7706666666667 49.5626666666667L249.104 86.896C251.1893333333333 88.9813333333333 251.1893333333333 92.352 249.104 94.4373333333334L131.7706666666667 211.7706666666667z" />
    <glyph glyph-name="down-arrow"
      unicode="&#xEA14;"
      horiz-adv-x="256" d="M128 64C125.2693333333333 64 122.544 65.04 120.4586666666667 67.1253333333334L6.2506666666667 181.3333333333334L21.3333333333333 196.4213333333333L128 89.7546666666667L234.6666666666667 196.4213333333333L249.7493333333334 181.3333333333334L135.5413333333334 67.1253333333334C133.456 65.04 130.7306666666667 64 128 64z" />
    <glyph glyph-name="right-arrow"
      unicode="&#xEA16;"
      horiz-adv-x="256" d="M74.6666666666667 6.2453333333333L59.5786666666667 21.3333333333333L166.2453333333333 128L59.5786666666667 234.6666666666667L74.6666666666667 249.7546666666667L188.8746666666667 135.5413333333334C193.04 131.376 193.04 124.624 188.8746666666667 120.4586666666667L74.6666666666667 6.2453333333333z" />
    <glyph glyph-name="up-arrow"
      unicode="&#xEA17;"
      horiz-adv-x="256" d="M234.6666666666667 59.5786666666667L128 166.2453333333333L21.3333333333333 59.5786666666667L6.2453333333333 74.6666666666667L120.4586666666667 188.8746666666667C124.6186666666667 193.04 131.3813333333333 193.04 135.5413333333333 188.8746666666667L249.7546666666667 74.6666666666667L234.6666666666667 59.5786666666667z" />
    <glyph glyph-name="small-right"
      unicode="&#xEA18;"
      horiz-adv-x="256" d="M106.6666666666667 70.2506666666667L91.584 85.3333333333333L134.2506666666667 128L91.584 170.6666666666667L106.6666666666667 185.7493333333334L156.8746666666667 135.5413333333334C161.04 131.376 161.04 124.624 156.8746666666667 120.4586666666667L106.6666666666667 70.2506666666667z" />
    <glyph glyph-name="small-left"
      unicode="&#xEA19;"
      horiz-adv-x="256" d="M149.3333333333333 70.2506666666667L99.1253333333333 120.4586666666667C94.96 124.624 94.96 131.376 99.1253333333333 135.5413333333334L149.3333333333333 185.7493333333334L164.416 170.6666666666667L121.7493333333334 128L164.416 85.3333333333333L149.3333333333333 70.2506666666667z" />
    <glyph glyph-name="small-down"
      unicode="&#xEA1A;"
      horiz-adv-x="256" d="M128 96C125.2693333333333 96 122.5386666666667 97.04 120.4586666666667 99.1253333333334L70.2453333333333 149.3333333333334L85.3333333333333 164.4213333333333L128 121.7546666666667L170.6666666666667 164.4213333333333L185.7546666666667 149.3333333333334L135.5413333333334 99.1253333333334C133.4613333333333 97.04 130.7306666666667 96 128 96z" />
    <glyph glyph-name="small-up"
      unicode="&#xEA1B;"
      horiz-adv-x="256" d="M170.6666666666667 91.5786666666667L128 134.2453333333333L85.3333333333333 91.5786666666667L70.2453333333333 106.6666666666667L120.4586666666667 156.8746666666667C124.6186666666667 161.04 131.3813333333333 161.04 135.5413333333333 156.8746666666667L185.7546666666667 106.6666666666667L170.6666666666667 91.5786666666667z" />
    <glyph glyph-name="star-full"
      unicode="&#xEA1C;"
      horiz-adv-x="256" d="M246.1013333333333 159.6213333333333L167.8026666666667 170.9973333333333L132.8 241.9466666666667A5.5466666666667 5.5466666666667 0 0 1 123.2373333333333 241.9466666666667L88.2186666666667 171.0133333333333L9.8986666666667 159.6213333333333A5.3333333333333 5.3333333333333 0 0 1 6.9333333333333 150.528L63.6053333333333 95.296L50.2293333333333 17.312A5.3333333333333 5.3333333333333 0 0 1 57.9626666666667 11.6906666666667L128 48.5066666666667L198.0373333333333 11.7066666666667A5.3333333333333 5.3333333333333 0 0 1 205.7706666666667 17.328L192.3946666666666 95.296L249.0666666666667 150.528A5.3333333333333 5.3333333333333 0 0 1 246.1066666666667 159.6213333333333z" />
    <glyph glyph-name="star-empty"
      unicode="&#xEA1D;"
      horiz-adv-x="256" d="M127.155 233.759C125.448 232.922 120.349 223.69 108.402 199.805C99.378 181.762 91.438 167 90.759 167C90.08 167 73.993 164.74 55.012 161.978C22.385 157.231 20.377 156.818 18.25 154.423C15.764 151.623 15.435 148.567 17.285 145.462C17.953 144.341 29.75 132.422 43.5 118.977C64.655 98.29 68.451 94.143 68.181 92.015C68.005 90.632 65.421 75.325 62.438 58C59.455 40.675 57.011 25.242 57.007 23.705C56.998 20.175 61.047 16 64.479 16C65.892 16 81.141 23.425 98.366 32.5C115.59 41.575 130.134 49 130.685 49C131.237 49 145.765 41.575 162.97 32.5C180.175 23.425 195.259 16 196.491 16C200.445 16 203.997 19.688 204.026 23.823C204.04 25.845 201.477 42.549 198.331 60.942L192.611 94.384L218.805 119.96C242.197 142.8 245 145.876 245 148.713C245 150.582 244.074 152.94 242.75 154.445C240.61 156.876 238.741 157.256 204.61 162.205L168.72 167.41L153.039 199.455C144.415 217.08 136.713 232.026 135.924 232.67C133.654 234.52 129.708 235.01 127.155 233.759M144.172 181.453C151.896 165.731 158.089 154.34 159.357 153.518C160.536 152.755 174.697 150.209 190.827 147.859L220.153 143.587L198.044 122.044C183.491 107.863 175.948 99.816 175.973 98.5C175.994 97.4 178.217 83.675 180.912 68C183.608 52.325 185.679 39.362 185.516 39.192C185.352 39.023 173.702 44.986 159.627 52.442C141.583 62.002 133.055 66 130.711 66C128.372 66 119.846 62.016 101.944 52.557C85.186 43.704 76.398 39.563 76.202 40.428C76.038 41.15 77.95 53.632 80.452 68.165C82.953 82.698 85 95.958 85 97.631C85 100.268 82.13 103.508 63.452 121.955C51.6 133.66 42.038 143.367 42.202 143.526C42.366 143.685 55.321 145.676 70.991 147.951C88.11 150.435 100.392 152.682 101.762 153.58C103.174 154.505 109.074 165.146 117.262 181.537C124.533 196.091 130.628 208 130.806 208C130.984 208 136.999 196.054 144.172 181.453" />
    <glyph glyph-name="plus"
      unicode="&#xEA1E;"
      horiz-adv-x="256" d="M138.6666666666667 192L117.3333333333333 192L117.3333333333333 138.6666666666667L64 138.6666666666667L64 117.3333333333334L117.3333333333333 117.3333333333334L117.3333333333333 64L138.6666666666667 64L138.6666666666667 117.3333333333334L192 117.3333333333334L192 138.6666666666667L138.6666666666667 138.6666666666667z" />
    <glyph glyph-name="minus"
      unicode="&#xEA1F;"
      horiz-adv-x="256" d="M64 138.6666666666667H192V117.3333333333334H64V138.6666666666667z" />
    <glyph glyph-name="required"
      unicode="&#xEA20;"
      horiz-adv-x="256" d="M142.016 20.416C142.016 12.672 135.68 6.4 128 6.4C120.256 6.4 113.984 12.736 113.984 20.416V235.584C113.984 243.328 120.32 249.6 128 249.6C135.744 249.6 142.016 243.264 142.016 235.584V20.416zM228.16 86.336C234.816 82.496 237.184 73.856 233.28 67.2C229.44 60.544 220.8 58.176 214.144 62.08L27.84 169.664C21.184 173.504 18.816 182.144 22.72 188.8C26.56 195.456 35.2 197.824 41.856 193.92L228.1600000000001 86.336zM214.144 193.92C220.8 197.76 229.44 195.456 233.28 188.8S234.816 173.504 228.16 169.664L41.856 62.08C35.2 58.24 26.56 60.544 22.72 67.2S21.184 82.496 27.84 86.336L214.144 193.92z" />
    <glyph glyph-name="search"
      unicode="&#xEA22;"
      horiz-adv-x="256" d="M193.4293333333333 81.4293333333334A13.3333333333333 13.3333333333333 0 0 1 174.5706666666667 62.5706666666667L222.5706666666667 14.5706666666667A13.3333333333333 13.3333333333333 0 0 1 241.4293333333333 33.4293333333333zM101.3333333333333 245.3333333333334A90.6666666666667 90.6666666666667 0 1 1 192 154.6666666666667A90.768 90.768 0 0 1 101.3333333333333 245.3333333333334zM101.3333333333333 74.6666666666667A80 80 0 1 0 181.3333333333333 154.6666666666667A80.0906666666667 80.0906666666667 0 0 0 101.3333333333333 74.6666666666667zM101.3333333333333 213.3333333333334A58.736 58.736 0 0 1 42.6666666666667 154.6666666666667A5.3333333333333 5.3333333333333 0 0 1 53.3333333333333 154.6666666666667A48.0586666666667 48.0586666666667 0 0 0 101.3333333333333 202.6666666666667A5.3333333333333 5.3333333333333 0 0 1 101.3333333333333 213.3333333333334z" />
    <glyph glyph-name="undo"
      unicode="&#xEA24;"
      horiz-adv-x="256" d="M207.2 43.472C205.8346666666667 43.472 204.4693333333333 43.9946666666667 203.4293333333333 45.0346666666667C201.344 47.1146666666667 201.344 50.4906666666667 203.4293333333333 52.5760000000001C213.3653333333333 62.5120000000001 221.1413333333333 74.1600000000001 226.544 87.1840000000001C227.68 89.9093333333334 230.8053333333333 91.1893333333334 233.5146666666667 90.0693333333334C236.24 88.9386666666667 237.5306666666667 85.8186666666667 236.4 83.0986666666667C230.4586666666667 68.7733333333334 221.904 55.9680000000001 210.9706666666667 45.0346666666667C209.9253333333333 43.9946666666667 208.56 43.472 207.2 43.472zM85.1413333333333 19.1946666666667C84.4586666666667 19.1946666666667 83.7653333333333 19.328 83.0986666666667 19.6053333333333C68.768 25.5466666666667 55.9626666666667 34.1013333333333 45.0293333333333 45.0346666666666C42.944 47.1146666666666 42.944 50.4906666666666 45.0293333333333 52.576S50.4853333333333 54.6613333333333 52.5706666666667 52.576C62.512 42.64 74.1546666666667 34.8586666666666 87.1786666666667 29.4613333333333C89.904 28.3306666666666 91.1946666666667 25.2106666666666 90.064 22.4906666666666C89.216 20.4373333333334 87.2266666666667 19.1946666666667 85.1413333333333 19.1946666666667zM24.5333333333333 79.8026666666667C22.4426666666667 79.8026666666667 20.4533333333333 81.04 19.6053333333333 83.0986666666667C13.6693333333333 97.408 10.6666666666667 112.5173333333333 10.6666666666667 128C10.6666666666667 130.944 13.0506666666667 133.3333333333333 16 133.3333333333333S21.3333333333333 130.944 21.3333333333333 128C21.3333333333333 113.9253333333333 24.0693333333333 100.192 29.456 87.184C30.5866666666667 84.464 29.2906666666667 81.344 26.5706666666667 80.2133333333333C25.904 79.936 25.216 79.8026666666667 24.5333333333333 79.8026666666667zM128 10.6666666666667C125.0506666666667 10.6666666666667 122.6666666666667 13.056 122.6666666666667 16S125.0506666666667 21.3333333333334 128 21.3333333333334C142.0853333333333 21.3333333333334 155.8133333333333 24.0693333333334 168.816 29.456C171.5306666666667 30.5760000000001 174.656 29.2960000000001 175.7866666666667 26.5706666666667C176.9173333333333 23.8506666666667 175.6266666666667 20.7306666666667 172.9013333333333 19.6000000000001C158.5973333333333 13.6746666666667 143.488 10.6666666666667 128 10.6666666666667zM128 245.3333333333334C101.7493333333333 245.3333333333334 76.6026666666667 236.5173333333334 56.304 220.8533333333334L31.3866666666667 244.064C30.0853333333333 245.28 28.208 245.664 26.544 245.0293333333334C24.8746666666667 244.4106666666667 23.7013333333333 242.896 23.5146666666667 241.1306666666667L16.0266666666667 171.0773333333334C15.872 169.6053333333334 16.4106666666667 168.144 17.4933333333333 167.1413333333333C18.6186666666667 166.0906666666667 20.1386666666667 165.696 21.5253333333333 165.952L90.8746666666667 178.384C92.624 178.6933333333333 94.048 179.9733333333333 94.5493333333333 181.68C95.056 183.3866666666667 94.5493333333333 185.232 93.248 186.4426666666667L64.2506666666667 213.4506666666667C82.4533333333333 227.024 104.7413333333333 234.6666666666667 128 234.6666666666667C186.816 234.6666666666667 234.6666666666667 186.816 234.6666666666667 128C234.6666666666667 125.056 237.0506666666667 122.6666666666667 240 122.6666666666667S245.3333333333334 125.056 245.3333333333334 128C245.3333333333333 192.6986666666667 192.6986666666667 245.3333333333334 128 245.3333333333334z" />
    <glyph glyph-name="show-more"
      unicode="&#xEA25;"
      horiz-adv-x="256" d="M106.6666666666667 128A21.3333333333333 21.3333333333333 0 0 1 149.3333333333333 128A21.3333333333333 21.3333333333333 0 0 1 106.6666666666667 128M10.6666666666667 128A21.3333333333333 21.3333333333333 0 0 1 53.3333333333333 128A21.3333333333333 21.3333333333333 0 0 1 10.6666666666667 128M202.6666666666667 128A21.3333333333333 21.3333333333333 0 0 1 245.3333333333333 128A21.3333333333333 21.3333333333333 0 0 1 202.6666666666667 128" />
    <glyph glyph-name="edit"
      unicode="&#xEA26;"
      horiz-adv-x="256" d="M234.6666666666667 21.3333333333333H21.3333333333333A5.3333333333333 5.3333333333333 0 0 1 21.3333333333333 10.6666666666667H234.6666666666667A5.3333333333333 5.3333333333333 0 0 1 234.6666666666667 21.3333333333333zM227.7706666666667 201.104L185.104 243.7706666666667A5.3333333333333 5.3333333333333 0 0 1 177.5626666666667 243.7706666666667L154.6666666666667 220.8746666666667L204.8746666666667 170.6666666666667L227.7706666666667 193.5626666666667A5.3333333333333 5.3333333333333 0 0 1 227.7706666666667 201.104zM147.1253333333333 213.3333333333334L49.5626666666667 115.7706666666667A5.3333333333333 5.3333333333333 0 0 1 48.2773333333333 113.6853333333334L26.944 49.6853333333333A5.3333333333333 5.3333333333333 0 0 1 32 42.6666666666667A5.264 5.264 0 0 1 33.6853333333333 42.944L97.6853333333333 64.2773333333334A5.3333333333333 5.3333333333333 0 0 1 99.7706666666667 65.5626666666667L197.3333333333333 163.1253333333334z" />
    <glyph glyph-name="over"
      unicode="&#xEA27;"
      horiz-adv-x="256" d="M116.48 124.672H152.192L116.48 160.512zM230.4 252.672H25.6C11.52 252.672 0 241.152 0 227.072V150.272C0 136.192 11.52 124.672 25.6 124.672H103.68V191.36L170.368 124.672H230.4C244.48 124.672 256 136.192 256 150.272V227.072C256 241.152 244.48 252.672 230.4 252.672zM172.8 3.328L188.416 9.728L161.152 73.984L202.496 74.496L116.48 160.512V38.784L146.048 67.712z" />
    <glyph glyph-name="idle"
      unicode="&#xEA28;"
      horiz-adv-x="256" d="M222.336 67.328H33.664C15.104 67.328 0 82.432 0 100.992V155.008C0 173.568 15.104 188.672 33.664 188.672H222.336C240.896 188.672 256 173.568 256 155.008V101.12C256 82.432 240.896 67.328 222.336 67.328zM33.664 175.104C22.528 175.104 13.44 166.016 13.44 154.88V100.992C13.44 89.856 22.528 80.768 33.664 80.768H222.336C233.472 80.768 242.56 89.856 242.56 100.992V155.008C242.56 166.144 233.472 175.232 222.336 175.232H33.664z" />
    <glyph glyph-name="click"
      unicode="&#xEA2A;"
      horiz-adv-x="256" d="M172.8 3.328L188.416 9.728L161.152 73.984L202.496 74.496L116.48 160.512V38.784L146.048 67.712zM230.4 252.672H25.6C11.52 252.672 0 241.152 0 227.072V150.272C0 136.192 11.52 124.672 25.6 124.672H103.68V191.36L170.368 124.672H230.4C244.48 124.672 256 136.192 256 150.272V227.072C256 241.152 244.48 252.672 230.4 252.672zM46.336 188.416V190.592C46.336 193.408 48.64 195.712 51.456 195.712H78.464C81.28 195.712 83.584 193.408 83.584 190.592V188.416C83.584 185.6 81.28 183.296 78.464 183.296H51.456C48.64 183.296 46.336 185.6 46.336 188.416zM90.24 167.168L71.168 148.096C69.12 146.048 65.92 146.048 63.872 148.096L62.336 149.632C60.288 151.68 60.288 154.88 62.336 156.928L81.408 176C83.456 178.048 86.656 178.048 88.704 176L90.24 174.464C92.288 172.416 92.288 169.216 90.24 167.168zM90.24 204.544L88.704 203.008C86.656 200.96 83.456 200.96 81.408 203.008L62.336 222.08C60.288 224.128 60.288 227.328 62.336 229.376L63.872 230.912C65.92 232.96 69.12 232.96 71.168 230.912L90.24 211.84C92.288 209.792 92.288 206.464 90.24 204.544zM109.952 214.784C109.952 211.968 107.648 209.664 104.832 209.664H102.656C99.84 209.664 97.536 211.968 97.536 214.784V241.792C97.536 244.608 99.84 246.912 102.656 246.912H104.832C107.648 246.912 109.952 244.608 109.952 241.792V214.784zM118.784 203.008L117.248 204.544C115.2 206.592 115.2 209.792 117.248 211.84L136.32 230.912C138.368 232.96 141.568 232.96 143.616 230.912L145.152 229.376C147.2 227.328 147.2 224.128 145.152 222.08L125.952 203.008C124.032 200.96 120.704 200.96 118.784 203.008zM161.152 188.416C161.152 185.6 158.848 183.296 156.032 183.296H129.024C126.208 183.296 123.904 185.6 123.904 188.416V190.592C123.904 193.408 126.208 195.712 129.024 195.712H156.032C158.848 195.712 161.152 193.408 161.152 190.592V188.416z" />
    <glyph glyph-name="cursor"
      unicode="&#xEA2B;"
      horiz-adv-x="256" d="M233.104 62.4373333333334L153.344 142.2026666666667L220.768 171.0986666666667C222.8533333333333 171.9893333333333 224.144 174.096 223.9893333333333 176.3573333333334S222.2773333333333 180.5333333333334 220.096 181.136L28.0959999999999 234.4693333333334C26.2453333333333 235.0026666666667 24.2559999999999 234.464 22.8959999999999 233.104S21.0133333333333 229.76 21.5253333333333 227.904L74.8586666666667 35.904C75.4666666666667 33.7226666666667 77.3866666666667 32.16 79.6373333333333 32.0106666666667C81.9733333333333 31.8186666666666 84.0053333333333 33.1466666666667 84.896 35.232L113.792 102.6613333333333L193.5573333333333 22.896C194.6026666666667 21.856 195.968 21.3333333333333 197.3333333333333 21.3333333333333S200.064 21.856 201.104 22.896L233.104 54.896C235.1893333333333 56.9813333333333 235.1893333333333 60.352 233.104 62.4373333333334z" />
    <glyph glyph-name="text"
      unicode="&#xEA2C;"
      horiz-adv-x="256" d="M69.3333333333333 5.3333333333333V26.6666666666667L106.9968533333333 29.2127466666667C111.7424 29.5714666666667 112 30.92336 112 36V224H59.90016C56.1616533333333 224 55.1546133333333 223.6413333333333 54.4786666666667 220.2753066666667L48 192H26.6666666666667V250.6666666666667H229.3333333333333V192H208L201.5351466666666 220.2753066666667C200.8592 223.6413333333333 199.8383466666667 224 196.1136533333333 224H144V36C144 31.2544533333333 143.9265066666667 29.9025066666667 149.0031466666667 29.5714666666667L186.6666666666667 26.6666666666667V5.3333333333333H69.3333333333333z" />
    <glyph glyph-name="inkpot"
      unicode="&#xEA2D;"
      horiz-adv-x="256" d="M103.168 242.304C75.648 242.304 53.376 237.696 37.12 229.12S10.112 206.464 10.112 190.208C10.112 177.92 15.744 167.296 23.936 159.616C24.192 159.36 24.576 159.232 24.96 158.976L12.672 146.688C-4.224 129.792 -4.224 102.4 12.672 85.504L69.632 28.16C78.08 19.712 89.088 15.616 100.224 15.616S122.368 19.712 130.816 28.16L197.504 94.848C206.72 94.848 237.056 91.52 237.056 42.112C237.056 3.456 256 6.528 256 78.208C256 147.072 182.784 182.4 160.128 189.5680000000001L112.128 237.184C111.232 238.976 109.696 240.384 107.904 241.408H107.52C106.24 242.048 104.704 242.304 103.168 242.304zM85.376 221.056H87.296L49.024 182.784C51.712 181.632 54.4 180.608 57.344 179.584C61.44 178.176 66.432 177.024 71.168 176L107.904 212.736L196.736 123.52L116.224 43.008C112 38.784 106.24 36.224 100.096 36.224C94.08 36.224 88.32 38.656 83.968 43.008L27.008 99.968C22.784 104.192 20.608 109.696 20.608 115.712C20.608 121.728 22.784 127.488 27.008 131.84L42.496 147.328C46.08 145.664 49.792 144.384 53.76 143.104C72.448 137.216 94.208 135.04 114.56 134.4C117.632 130.048 122.88 127.36 128.768 127.36C138.24 127.36 145.792 134.912 145.792 144.384S138.24 161.408 128.768 161.408C123.264 161.408 118.016 158.976 114.944 155.008C95.744 155.648 75.776 157.824 60.288 162.688C59.776 162.816 59.264 163.2 58.624 163.328H58.24C49.536 166.4 42.24 170.496 37.76 174.72C32.896 179.2 30.72 183.424 30.72 190.208C30.72 197.888 34.944 204.8 46.848 211.072C55.68 215.808 68.864 219.52 85.376 221.056z" />
    <glyph glyph-name="align-left"
      unicode="&#xEA2E;"
      horiz-adv-x="256" d="M8.789 238.637C6.112 236.602 4.888 232.424 6.064 229.331C8.181 223.764 1.074 224.066 130.798 224.032L251.095 224L253.548 226.646C256.735 230.085 256.734 234.357 253.545 237.545L251.091 240L130.795 239.968C33.689 239.943 10.17 239.686 8.789 238.637M10 185.706C4.744 183.047 4.152 174.595 9.039 171.979C10.18 171.368 36.04 171 77.76 171L144.651 171L146.826 173.314C148.968 175.595 149.595 179.286 148.379 182.455C146.654 186.95 145.854 187.001 77.3 186.985C27.072 186.974 11.938 186.686 10 185.706M8.881 131.993C6.26 130.462 4.756 125.771 5.912 122.732C8.221 116.658 1.502 116.951 132.06 117.238L251.173 117.5L253.587 120.306C256.668 123.889 256.654 127.437 253.545 130.545L251.091 133L130.795 132.97C57.052 132.951 9.874 132.573 8.881 131.993M8.789 78.637C4.655 75.495 4.655 68.505 8.789 65.363C10.152 64.328 24.08 64.057 77.295 64.032L144.091 64L146.545 66.455C149.986 69.896 149.904 75.144 146.365 77.927C143.758 79.978 143.018 80 77.115 79.968C24.048 79.943 10.152 79.672 8.789 78.637M10 25.706C4.744 23.047 4.152 14.595 9.039 11.979C10.203 11.356 54.545 11 130.98 11L251.091 11L253.545 13.455C256.848 16.757 256.6840000000001 20.47 253.077 24.077L250.154 27L131.327 26.985C37.546 26.974 11.973 26.704 10 25.706" />
    <glyph glyph-name="italic"
      unicode="&#xEA2F;"
      horiz-adv-x="256" d="M63.11104 0L64.8817066666667 17.33248L90.6933333333333 19.8085333333333C95.6454933333334 20.1540266666667 96.35088 21.5648 97.0562666666667 26.8768533333333L125.344 229.1230933333334C126.0493866666667 234.4351466666667 125.7038933333333 235.84592 120.7517333333333 236.2058133333334L96.0053866666667 238.6818666666667L98.1215466666667 256H192.8889066666667L190.7583466666667 238.6818666666667L163.89584 235.84592C158.5837866666667 235.1405333333334 158.2238933333333 234.4351466666667 157.5185066666667 229.1230933333334L128.8853333333333 27.2224C128.1799466666667 21.5648533333333 128.1799466666667 20.8594666666667 133.4776 20.15408L159.64912 17.33248L157.8784533333333 0H63.11104z" />
    <glyph glyph-name="line-height"
      unicode="&#xEA30;"
      horiz-adv-x="256" d="M245.3333333333333 122.6666666666667H101.3333333333333C98.38544 122.6666666666667 96 125.0546666666667 96 128S98.38544 133.3333333333334 101.3333333333333 133.3333333333334H245.3333333333333C248.2812266666667 133.3333333333334 250.6666666666667 130.9453333333334 250.6666666666667 128S248.2812266666667 122.6666666666667 245.3333333333333 122.6666666666667zM42.6666666666667 250.6666666666667L10.6666666666667 213.3333333333334L37.3333333333333 213.3333333333334L37.3333333333333 42.6666666666667L10.6666666666667 42.6666666666667L42.6666666666667 5.3333333333333L74.6666666666667 42.6666666666667L48 42.6666666666667L48 213.3333333333334L74.6666666666667 213.3333333333334zM147.1110933333333 154.6666666666667V163.1686933333334L163.0445333333333 164.2518933333333C165.2109866666667 164.41568 165.3333333333333 165.0328533333334 165.3333333333333 167.3504V234.6666666666667H144C142.29328 234.6666666666667 141.4502933333333 234.18624 141.1417066666666 232.6495466666667L138.6666666666667 218.6666666666667H128V245.3333333333334H218.6666666666666V218.6666666666667H208L205.7472 232.6495466666667C205.4386133333333 234.18624 204.36704 234.6666666666667 202.6666666666667 234.6666666666667H181.3333333333333V167.3504C181.3333333333333 165.1839466666667 181.6761066666667 164.5667733333334 183.9937066666667 164.4156266666667L201.0103466666666 163.16864V154.6666666666667H147.1110933333333zM147.1110933333333 10.6666666666667V19.1686933333334L163.0445333333333 20.2519466666667C165.2109866666667 20.4156266666667 165.3333333333333 21.0328533333334 165.3333333333333 23.3504V90.6666666666667H144C142.29328 90.6666666666667 141.4502933333333 90.18624 141.1417066666666 88.6496L138.6666666666667 74.6666666666667H128V101.3333333333333H218.6666666666666V74.6666666666667H208L205.7472 88.6496C205.4386133333333 90.18624 204.36704 90.6666666666667 202.6666666666667 90.6666666666667H181.3333333333333V23.3504C181.3333333333333 21.1839466666667 181.6761066666667 20.5667733333334 183.9937066666667 20.4156266666667L201.0103466666666 19.16864V10.6666666666667H147.1110933333333z" />
    <glyph glyph-name="scale-vertical"
      unicode="&#xEA31;"
      horiz-adv-x="256" d="M42.6666666666667 250.6666666666667L10.6666666666667 213.3333333333334L37.3333333333333 213.3333333333334L37.3333333333333 42.6666666666667L10.6666666666667 42.6666666666667L42.6666666666667 5.3333333333333L74.6666666666667 42.6666666666667L48 42.6666666666667L48 213.3333333333334L74.6666666666667 213.3333333333334zM122.6666666666667 16V32L149.66352 34.54608C154.4090666666667 34.9048 154.6666666666667 36.2566933333333 154.6666666666667 41.3333333333333V181.3333333333334H107.90016C104.1616533333333 181.3333333333334 103.1546133333333 180.9746666666667 102.4786666666667 177.60864L96 154.6666666666667H80V202.6666666666667H256V154.6666666666667H240L233.5351466666667 177.60864C232.8592 180.9746666666667 231.8383466666667 181.3333333333334 228.1136533333334 181.3333333333334H181.3333333333333V41.3333333333333C181.3333333333333 36.5877866666667 181.2598933333333 35.23584 186.33648 34.9048L213.3333333333333 32V16H122.6666666666667z" />
    <glyph glyph-name="underline"
      unicode="&#xEA32;"
      horiz-adv-x="256" d="M245.3333333333333 10.6666666666667H10.6666666666667C7.7213333333333 10.6666666666667 5.3333333333333 13.0546666666667 5.3333333333333 16S7.7213333333333 21.3333333333334 10.6666666666667 21.3333333333334H245.3333333333333C248.2786666666667 21.3333333333334 250.6666666666667 18.9453333333334 250.6666666666667 16S248.2786666666667 10.6666666666667 245.3333333333333 10.6666666666667zM224 245.3333333333334H154.6666666666667V229.3333333333334L167.9203733333333 226.0198933333334C172.6688 224.8328 176 220.5662933333333 176 215.6717333333334L176 121.696C176 96.1561066666667 156.7719466666667 73.8186133333334 131.28928 72.1104533333334C103.3415466666667 70.23712 80 92.4453866666667 80 120V215.6717333333334C80 220.5663466666667 83.3311466666667 224.8328 88.0796266666667 226.0199466666667L101.3333333333333 229.3333333333334V245.3333333333334H32V229.3333333333334L45.2537066666667 226.0198933333334C50.0021866666667 224.8328 53.3333333333333 220.5662933333333 53.3333333333333 215.6717333333334L53.3333333333333 122.1653333333333C53.3333333333333 82.00768 84.1306133333333 47.4042133333334 124.23952 45.4261866666667C167.1126933333333 43.3118933333334 202.6666666666667 77.58144 202.6666666666667 120V215.6717333333334C202.6666666666667 220.5663466666667 205.9978666666667 224.8328 210.7462933333333 226.0199466666667L224 229.3333333333334V245.3333333333334z" />
    <glyph glyph-name="caps-small"
      unicode="&#xEA33;"
      horiz-adv-x="256" d="M48 37.3333333333333V53.3333333333333L74.9968533333333 55.8794133333333C79.7424 56.2381333333333 80 57.5900266666667 80 62.6666666666667V202.6666666666667H33.2334933333333C29.4949866666667 202.6666666666667 28.4879466666667 202.308 27.812 198.9419733333334L21.3333333333333 176H5.3333333333333V224H181.3333333333334V176H165.3333333333334L158.86848 198.9419733333333C158.1925333333333 202.308 157.17168 202.6666666666667 153.4469866666667 202.6666666666667H106.6666666666667V62.6666666666667C106.6666666666667 57.92112 106.5931733333333 56.5691733333333 111.6698133333333 56.2381333333334L138.6666666666667 53.3333333333333V37.3333333333333H48zM168.4444266666667 37.3333333333333V45.83536L184.3778666666667 46.9186133333334C186.54432 47.0822933333334 186.6666666666667 47.69952 186.6666666666667 50.0170666666667V138.6666666666667H165.3333333333333C163.6266133333333 138.6666666666667 162.7836266666666 138.18624 162.47504 136.6496L160 122.6666666666667H149.3333333333334V149.3333333333334H240V122.6666666666667H229.3333333333334L227.0805333333334 136.6496C226.7719466666667 138.18624 225.7003733333334 138.6666666666667 224 138.6666666666667H202.6666666666667V50.0170666666667C202.6666666666667 47.8506133333333 203.00944 47.23344 205.32704 47.0822933333333L222.34368 45.8353066666667V37.3333333333333H168.4444266666667z" />
    <glyph glyph-name="full-screen"
      unicode="&#xEA34;"
      horiz-adv-x="256" d="M9.229 228.331C8.53 228.049 7.292 226.532 6.479 224.959C5.204 222.493 5 208.813 5 125.615C5 66.599 5.372 28.153 5.957 26.613C8.214 20.677 1.779 20.951 132.06 21.238L251.173 21.5L253.587 24.306L256 27.112L256 125.601L256 224.091L253.545 226.545L251.091 229L130.795 228.921C64.633 228.878 9.928 228.612 9.229 228.331M240 124.996L240 36.991L130.75 37.246L21.5 37.5L21.245 125.25L20.989 213L130.495 213L240 213L240 124.996M168.881 195.993C166.26 194.462 164.756 189.771 165.912 186.732C167.792 181.787 171.16 181 190.45 181L208 181L208 162.455C208 144.098 208.025 143.884 210.455 141.455C213.702 138.207 218.298 138.207 221.545 141.455L224 143.909L224 168L224 192.091L221.545 194.545L219.091 197L194.795 196.97C181.395 196.953 169.774 196.515 168.881 195.993M39.924 109.422C37.535 106.881 37.496 106.532 37.189 85.172C36.818 59.262 37.049 57.56 41.304 54.927C44.286 53.082 46.063 52.968 67.838 53.225L91.176 53.5L93.588 56.306C96.668 59.889 96.654 63.437 93.545 66.545C91.111 68.98 90.933 69 72.045 69L53 69L53 88.427L53 107.855L50.365 109.927C46.769 112.756 42.883 112.568 39.924 109.422" />
    <glyph glyph-name="artboard"
      unicode="&#xEA35;"
      horiz-adv-x="256" d="M63.234 249.456C61.62 248.778 60.007 247.461 59.65 246.529C58.619 243.844 58.896 219.063 59.979 217.039C61.489 214.218 66.703 212.748 69.849 214.257C74.325 216.403 75.08 219.297 74.777 233.148C74.546 243.697 74.2 246.128 72.69 247.793C70.336 250.39 66.894 250.995 63.234 249.456M191.234 249.456C189.62 248.778 188.007 247.461 187.65 246.529C186.619 243.844 186.896 219.063 187.979 217.039C189.489 214.218 194.703 212.748 197.849 214.257C202.325 216.403 203.08 219.297 202.777 233.148C202.546 243.697 202.2 246.128 200.69 247.793C198.336 250.39 194.894 250.995 191.234 249.456M8.881 195.993C5.975 194.295 4.632 189.539 6.16 186.354C8.281 181.93 11.298 181.029 24 181.029C36.567 181.029 39.724 181.941 41.743 186.151C43.252 189.297 41.782 194.511 38.961 196.021C36.623 197.272 11.029 197.248 8.881 195.993M61.174 194.686L59 192.371L59 125.62C59 83.991 59.368 58.18 59.979 57.039C62.042 53.184 65.281 53 131.199 53C200.835 53 199.88 52.924 202.043 58.613C202.616 60.121 203 86.975 203 125.615C203 193.825 202.947 194.655 198.455 196.379C197.565 196.72 166.802 197 130.093 197L63.349 197L61.174 194.686M221.174 194.686C218.434 191.769 218.324 186.676 220.944 184.056C223.601 181.399 227.957 180.753 240.495 181.156C250.768 181.487 251.269 181.607 253.588 184.306C256.668 187.889 256.654 191.437 253.545 194.545C251.175 196.916 250.614 197 237.22 197C224.013 197 223.244 196.889 221.174 194.686M186.758 125.25L186.5 69.5L130.75 69.242L75 68.983L75 124.992L75 181L131.008 181L187.017 181L186.758 125.25M8.881 67.993C5.975 66.295 4.632 61.539 6.16 58.354C8.281 53.93 11.298 53.029 24 53.029C36.567 53.029 39.724 53.941 41.743 58.151C43.252 61.297 41.782 66.511 38.961 68.021C36.623 69.272 11.029 69.248 8.881 67.993M221.174 66.686C218.434 63.769 218.324 58.676 220.944 56.056C223.601 53.399 227.957 52.753 240.495 53.156C250.768 53.487 251.269 53.607 253.588 56.306C256.668 59.889 256.654 63.437 253.545 66.545C251.175 68.916 250.614 69 237.22 69C224.013 69 223.244 68.889 221.174 66.686M61.174 34.686C59.16 32.541 59 31.362 59 18.64C59 5.395 59.087 4.822 61.455 2.455C64.563 -0.654 68.111 -0.668 71.694 2.412C74.393 4.731 74.513 5.232 74.844 15.505C75.247 28.043 74.601 32.399 71.944 35.056C69.214 37.786 63.916 37.604 61.174 34.686M189.174 34.686C187.16 32.541 187 31.362 187 18.64C187 5.395 187.087 4.822 189.455 2.455C192.563 -0.654 196.111 -0.668 199.694 2.412C202.393 4.731 202.513 5.232 202.844 15.505C203.247 28.043 202.601 32.399 199.944 35.056C197.214 37.786 191.916 37.604 189.174 34.686" />
    <glyph glyph-name="margin-left"
      unicode="&#xEA36;"
      horiz-adv-x="256" d="M8.881 243.993C6.26 242.462 4.756 237.771 5.912 234.732C8.221 228.658 1.502 228.951 132.06 229.238L251.173 229.5L253.587 232.306C256.668 235.889 256.654 239.437 253.545 242.545L251.091 245L130.795 244.97C57.052 244.951 9.874 244.573 8.881 243.993M146.455 189.545C143.266 186.357 143.265 182.085 146.452 178.646L148.905 176L200 176L251.095 176L253.548 178.646C256.735 182.085 256.734 186.357 253.545 189.545L251.091 192L200 192L148.909 192L146.455 189.545M77.174 162.686C75.84 161.266 75 159.084 75 157.041C75 154.162 76.382 152.305 85.19 143.355L95.38 133L55.364 133L15.349 133L13.174 130.686C10.871 128.233 10.355 124.073 11.979 121.039C13.941 117.374 18.139 117 57.381 117L95.464 117L85.232 106.733C74.664 96.129 73.439 93.786 75.979 89.039C77.545 86.113 82.658 84.767 85.84 86.443C87.303 87.213 96.263 95.671 105.75 105.237C120.134 119.74 123 123.112 123 125.535C123 127.969 120.037 131.403 104.72 146.72C87.887 163.553 86.159 165 82.894 165C80.481 165 78.654 164.261 77.174 162.686M146.923 136.077C143.316 132.47 143.152 128.757 146.455 125.455L148.909 123L200 123L251.091 123L253.545 125.455C256.848 128.757 256.6840000000001 132.47 253.077 136.077L250.154 139L200 139L149.846 139L146.923 136.077M146.455 82.545C143.346 79.437 143.332 75.889 146.413 72.306L148.827 69.5L200 69.5L251.173 69.5L253.587 72.306C256.668 75.889 256.654 79.437 253.545 82.545L251.091 85L200 85L148.909 85L146.455 82.545M8.789 30.637C4.655 27.495 4.655 20.505 8.789 17.363C10.17 16.314 33.689 16.057 130.798 16.032L251.095 16L253.548 18.646C256.735 22.085 256.734 26.357 253.545 29.545L251.091 32L130.795 31.968C33.689 31.943 10.17 31.686 8.789 30.637" />
    <glyph glyph-name="enlarge"
      unicode="&#xEA37;"
      horiz-adv-x="256" d="M245.3333333333333 250.6666666666667H165.3333333333333C163.1786666666667 250.6666666666667 161.2266666666667 249.3706666666667 160.4053333333333 247.376C159.5786666666667 245.3813333333334 160.0373333333333 243.088 161.5626666666667 241.5626666666667L197.792 205.3333333333334L150.896 158.4373333333334C148.8106666666667 156.352 148.8106666666667 152.9813333333334 150.896 150.896C151.936 149.856 153.3013333333333 149.3333333333334 154.6666666666667 149.3333333333334S157.3973333333333 149.856 158.4373333333333 150.896L205.3333333333333 197.792L241.5626666666667 161.5626666666667C242.5813333333334 160.544 243.9466666666667 160 245.3333333333333 160C246.0213333333333 160 246.7146666666667 160.128 247.376 160.4053333333333C249.3706666666667 161.2266666666667 250.6666666666667 163.1786666666667 250.6666666666667 165.3333333333334V245.3333333333334C250.6666666666667 248.2826666666667 248.2826666666667 250.6666666666667 245.3333333333333 250.6666666666667zM97.5626666666667 105.104L50.6666666666667 58.208L14.4373333333333 94.4373333333334C12.912 95.9626666666667 10.6186666666667 96.4213333333334 8.624 95.5946666666667C6.6293333333333 94.7733333333333 5.3333333333333 92.8213333333333 5.3333333333333 90.6666666666667V10.6666666666667C5.3333333333333 7.7173333333334 7.7173333333333 5.3333333333333 10.6666666666667 5.3333333333333H90.6666666666667C92.8213333333333 5.3333333333333 94.7733333333333 6.6293333333333 95.5946666666667 8.624C96.4213333333333 10.6186666666667 95.9626666666667 12.912 94.4373333333333 14.4373333333334L58.208 50.6666666666667L105.104 97.5626666666667C107.1893333333333 99.648 107.1893333333333 103.0186666666667 105.104 105.104S99.648 107.1893333333333 97.5626666666667 105.104zM58.208 205.3333333333334L94.4373333333333 241.5626666666667C95.9626666666667 243.088 96.4213333333333 245.3813333333333 95.5946666666667 247.376C94.7733333333333 249.3706666666667 92.8213333333333 250.6666666666667 90.6666666666667 250.6666666666667H10.6666666666667C7.7173333333333 250.6666666666667 5.3333333333333 248.2826666666667 5.3333333333333 245.3333333333334V165.3333333333333C5.3333333333333 163.1786666666667 6.6293333333333 161.2266666666667 8.624 160.4053333333333C9.2853333333333 160.128 9.9786666666667 160 10.6666666666667 160C12.0533333333333 160 13.4186666666667 160.544 14.4373333333333 161.5626666666667L50.6666666666667 197.792L97.5626666666667 150.896C98.6026666666667 149.856 99.968 149.3333333333334 101.3333333333333 149.3333333333334S104.064 149.856 105.104 150.896C107.1893333333333 152.9813333333334 107.1893333333333 156.352 105.104 158.4373333333334L58.208 205.3333333333334zM247.376 95.5946666666667C245.3813333333334 96.4213333333333 243.088 95.9626666666667 241.5626666666667 94.4373333333334L205.3333333333333 58.208L158.4373333333333 105.104C156.352 107.1893333333333 152.9813333333334 107.1893333333333 150.896 105.104S148.8106666666667 99.648 150.896 97.5626666666667L197.792 50.6666666666667L161.5626666666667 14.4373333333334C160.0373333333333 12.912 159.5786666666666 10.6186666666667 160.4053333333333 8.624C161.2266666666667 6.6293333333334 163.1786666666667 5.3333333333333 165.3333333333333 5.3333333333333H245.3333333333333C248.2826666666667 5.3333333333333 250.6666666666667 7.7173333333333 250.6666666666667 10.6666666666667V90.6666666666667C250.6666666666667 92.8213333333333 249.3706666666667 94.7733333333333 247.376 95.5946666666667z" />
    <glyph glyph-name="resize-v"
      unicode="&#xEA39;"
      horiz-adv-x="256" d="M18.923 248.077C15.316 244.47 15.152 240.757 18.455 237.455L20.909 235L130.78 235L240.651 235L242.826 237.314C244.968 239.595 245.595 243.286 244.379 246.455C242.599 251.094 244.957 251 129.973 251L21.846 251L18.923 248.077M126.5 217.133C124.85 216.082 113.713 205.362 101.75 193.309C82.954 174.373 80 170.981 80 168.344C80 164.071 83.974 160 88.145 160C91.019 160 93.603 162.206 110.943 179.463L130.5 198.926L150.098 179.463C167.356 162.324 170.078 160 172.894 160C177.222 160 181 163.828 181 168.213C181 171.191 178.712 173.798 157.75 194.702C143.986 208.428 133.48 218.124 132 218.466C130.416 218.832 128.401 218.344 126.5 217.133M82.923 88.077C77.268 82.422 77.531 82.016 103.773 55.773C125.33 34.216 127.858 32 130.892 32C133.863 32 135.976 33.71 149.738 47.25C172.191 69.342 181.007 79.361 180.968 82.741C180.913 87.54 175.922 91.701 171.712 90.457C170.496 90.098 160.842 81.195 150.261 70.673L131.022 51.541L124.765 57.521C121.324 60.809 112.172 69.687 104.427 77.25C94.781 86.668 89.636 91 88.096 91C86.858 91 84.531 89.685 82.923 88.077M18.455 13.545C15.266 10.357 15.265 6.085 18.452 2.646L20.905 0L130.498 0L240.091 0L242.545 2.455C245.986 5.896 245.904 11.144 242.365 13.927C239.736 15.996 239.493 16 130.32 16L20.909 16L18.455 13.545" />
    <glyph glyph-name="resize-h"
      unicode="&#xEA3A;"
      horiz-adv-x="256" d="M8.789 238.637C7.848 237.922 6.611 236.107 6.039 234.603C4.539 230.656 4.602 20.44 6.105 16.128C8.03 10.606 14.862 9.095 18.826 13.314L21 15.629L21 125.742L21 235.855L18.365 237.927C15.389 240.268 11.332 240.569 8.789 238.637M242.455 237.545L240 235.091L240 125.5L240 15.909L242.455 13.455C245.702 10.207 250.298 10.207 253.545 13.455L256 15.909L256 125.5L256 235.091L253.545 237.545C251.998 239.093 249.948 240 248 240C246.052 240 244.002 239.093 242.455 237.545M62.226 153.75C49.919 141.512 39.199 130.266 38.404 128.759C37.608 127.251 37.224 124.957 37.549 123.66C37.874 122.364 48.593 110.885 61.369 98.152C82.116 77.473 84.944 75 87.844 75C91.925 75 96 78.821 96 82.648C96 84.87 92.285 89.118 76.294 105.182L56.587 124.978L76.294 144.842C93.638 162.326 96 165.089 96 167.899C96 172.192 92.168 176 87.846 176C84.955 176 82.169 173.581 62.226 153.75M168.323 173.75C165.234 170.318 164.839 168.141 166.624 164.381C167.52 162.491 176.297 153.24 186.127 143.823C195.957 134.406 204 126.211 204 125.61C204 125.01 195.483 115.965 185.073 105.509C174.604 94.995 166.061 85.606 165.957 84.5C165.393 78.491 168.083 75 173.278 75C176.225 75 178.947 77.4 200.278 98.798C220.425 119.009 224 123.037 224 125.525C224 128.014 220.436 132.018 200.227 152.227C179.58 172.874 176.052 176 173.401 176C171.502 176 169.583 175.15 168.323 173.75" />
    <glyph glyph-name="border"
      unicode="&#xEA3B;"
      horiz-adv-x="256" d="M10.465 250.048C5.216 247.921 5.5 255.037 5.5 125.427L5.5 5.161L7.924 2.581L10.349 0L130.722 0L251.095 0L253.548 2.646L256 5.292L256 125.223L256 245.154L253.077 248.077L250.154 251L131.327 250.937C65.972 250.902 11.584 250.502 10.465 250.048M240 125.5L240 16L130.5 16L21 16L21 125.5L21 235L130.5 235L240 235L240 125.5M127.5 217.869C123.277 215.508 123 214.242 123 197.263C123 181.233 123.049 180.86 125.455 178.455C128.716 175.193 132.941 175.244 136.076 178.581C138.438 181.095 138.5 181.581 138.5 197.553C138.5 212.623 138.339 214.103 136.5 215.909C133.922 218.441 130.037 219.288 127.5 217.869M40.881 131.993C38.26 130.462 36.756 125.771 37.912 122.732C39.805 117.752 43.529 116.823 60.176 117.179L75.178 117.5L77.589 120.306C80.668 123.889 80.653 127.438 77.545 130.545C75.137 132.954 74.782 132.999 58.795 132.97C49.833 132.953 41.772 132.514 40.881 131.993M184.881 131.993C182.26 130.462 180.756 125.771 181.912 122.732C183.805 117.752 187.529 116.823 204.176 117.179L219.178 117.5L221.589 120.306C224.668 123.889 224.653 127.438 221.545 130.545C219.137 132.954 218.782 132.999 202.795 132.97C193.833 132.953 185.772 132.514 184.881 131.993M127.5 73.869C123.277 71.508 123 70.242 123 53.263C123 37.233 123.049 36.86 125.455 34.455C128.716 31.193 132.941 31.244 136.076 34.581C138.438 37.095 138.5 37.581 138.5 53.553C138.5 68.623 138.339 70.103 136.5 71.909C133.922 74.441 130.037 75.288 127.5 73.869" />
    <glyph glyph-name="border-style"
      unicode="&#xEA3C;"
      horiz-adv-x="256" d="M160 32H181.3333333333334V53.3333333333333H160V32zM202.6666666666667 32H224V53.3333333333333H202.6666666666667V32zM74.6666666666667 32H96V53.3333333333333H74.6666666666667V32zM117.3333333333333 32H138.6666666666667V53.3333333333333H117.3333333333333V32zM202.6666666666666 74.6666666666667H224V96H202.6666666666666V74.6666666666667zM202.6666666666666 117.3333333333333H224V138.6666666666666H202.6666666666666V117.3333333333333zM32 224V32H53.3333333333333V202.6666666666667H224V224H32zM202.6666666666667 160H224V181.3333333333333H202.6666666666667V160z" />
    <glyph glyph-name="border-radius"
      unicode="&#xEA3D;"
      horiz-adv-x="256" d="M28.086 249.944C19.88 248.279 10.324 240.002 7.367 232C5.332 226.493 4.164 191.214 5.87 186.798C6.444 185.312 8.278 183.391 9.944 182.529C12.626 181.142 13.373 181.129 16.451 182.415C18.625 183.323 20.122 184.737 20.444 186.184C20.727 187.458 21.081 196.906 21.229 207.18C21.477 224.257 21.678 226.101 23.571 228.68C27.726 234.338 30.612 234.997 51.25 234.998C68.666 235 70.142 235.142 72 237C75.04 240.04 74.992 245.318 71.896 248.5C70.099 250.346 68.509 250.513 51.225 250.67C40.926 250.763 30.514 250.437 28.086 249.944M191.5 249.894C186.427 246.996 185.375 240.875 189.314 237.174C191.518 235.104 192.514 235 210.064 234.998C230.792 234.997 233.59 234.299 237.73 228.102C239.889 224.87 240 223.785 240 205.908C240 187.639 240.066 187.035 242.342 184.389C244.015 182.444 245.63 181.667 248 181.667C250.37 181.667 251.985 182.444 253.658 184.389C255.94 187.042 256 187.609 256 206.518C256 229.371 254.908 233.825 247.409 241.541C239.552 249.624 236.584 250.431 213.5 250.755C199.855 250.947 192.865 250.673 191.5 249.894M8.025 67.025C5.032 64.032 4.755 61.552 5.145 41.252C5.494 23.115 5.597 22.314 8.293 16.818C11.314 10.659 15.654 6.295 22.278 2.756C26.219 0.65 27.932 0.479 48.012 0.182L69.525 -0.135L71.929 2.424C75.039 5.735 75.065 10.238 71.992 13.508C69.655 15.996 69.62 16 50.474 16C32.2 16 31.136 16.107 27.898 18.27C21.692 22.415 21.003 25.194 21.002 46.076C21 64.199 20.944 64.704 18.686 66.826C15.753 69.581 10.676 69.676 8.025 67.025M242.455 66.545C240.024 64.115 240 63.908 240 45.447C240 16.54 240.171 16.715 211.351 16C193.357 15.553 190.978 15.296 189.101 13.595C186.104 10.878 186.304 5.605 189.525 2.384L192.051 -0.142L213.275 0.179C233.23 0.481 234.769 0.64 239 2.835C244.993 5.946 250.173 11.078 253.102 16.808C255.373 21.251 255.517 22.628 255.821 42.725L256.142 63.949L253.616 66.475C250.297 69.794 245.732 69.823 242.455 66.545" />
    <glyph glyph-name="border-width"
      unicode="&#xEA3E;"
      horiz-adv-x="256" d="M138.6666666666667 181.3333333333334H117.3333333333333V160H138.6666666666667V181.3333333333334zM138.6666666666667 138.6666666666667H117.3333333333333V117.3333333333334H138.6666666666667V138.6666666666667zM181.3333333333333 138.6666666666667H160V117.3333333333334H181.3333333333333V138.6666666666667zM32 224V32H224V224H32zM202.6666666666667 53.3333333333333H53.3333333333333V202.6666666666667H202.6666666666666V53.3333333333334zM138.6666666666667 96H117.3333333333333V74.6666666666667H138.6666666666667V96zM96 138.6666666666667H74.6666666666667V117.3333333333333H96V138.6666666666666z" />
    <glyph glyph-name="question"
      unicode="&#xEA3F;"
      horiz-adv-x="256" d="M117 249.85C83.813 246.398 49.924 226.84 29.809 199.531C18.867 184.677 9.937 163.471 6.906 145.148C5.491 136.589 5.491 114.411 6.906 105.852C9.962 87.378 18.945 65.991 29.795 51.357C75.595 -10.413 164.029 -17.377 218.487 36.5C229.15 47.05 235.477 55.687 242.171 68.836C262.8330000000001 109.418 259.963 156.77 234.524 195C213.951 225.919 180.8 245.726 142.5 249.983C132.312 251.116 129 251.098 117 249.85M141.637 233.934C154.018 232.554 163.975 229.966 174.238 225.462C219.818 205.458 246.383 156.909 238.465 108.084C234.798 85.47 225.333 66.635 209.194 49.829C184.269 23.874 147.878 11.605 113.5 17.567C76.898 23.915 47.704 45.769 32.106 78.5C24.79 93.851 21.839 107.015 21.796 124.5C21.75 143.445 25.133 158.279 33.202 174.5C49.385 207.035 82.611 230.078 118.887 233.926C129.988 235.104 131.143 235.104 141.637 233.934M123 201.922C113.17 200.675 100.314 196.214 97.973 193.238C95.583 190.2 95.461 187.215 97.601 184.159C100.625 179.842 103.336 179.675 113.347 183.191C121.416 186.025 123.75 186.407 133.056 186.415C142.608 186.424 144.157 186.158 149.357 183.614C157.627 179.568 160.501 174.914 160.497 165.573C160.493 155.073 158.067 151.009 142.827 135.98C127.861 121.22 124.079 114.83 123.222 102.861C122.775 96.613 122.956 95.676 125.037 93.46C127.915 90.398 133.15 90.15 135.944 92.944C137.014 94.014 138.162 96.601 138.496 98.694C140.314 110.091 140.747 110.794 155.126 125.666C166.649 137.583 169.478 141.135 172.666 147.687C176.245 155.045 176.468 156.053 176.483 165C176.498 173.396 176.162 175.231 173.595 180.791C168.001 192.906 157.23 199.908 141 201.98C132.53 203.062 131.975 203.06 123 201.922M125.415 73.626C115.602 69.202 114.767 56.345 123.898 50.263C135.009 42.862 148.994 56.297 142.044 67.696C138.354 73.747 131.28 76.27 125.415 73.626" />
    <glyph glyph-name="books"
      unicode="&#xEA40;"
      horiz-adv-x="256" d="M69.3333333333333 90.6666666666667V234.6666666666667C69.3333333333333 237.616 66.944 240 64 240H10.6666666666667C7.7226666666667 240 5.3333333333333 237.616 5.3333333333333 234.6666666666667V90.6666666666667H69.3333333333333zM32 202.6666666666667C32 205.616 34.3893333333333 208 37.3333333333333 208S42.6666666666667 205.616 42.6666666666667 202.6666666666667V160C42.6666666666667 157.0506666666667 40.2773333333333 154.6666666666667 37.3333333333333 154.6666666666667S32 157.0506666666667 32 160V202.6666666666667zM5.3333333333333 80V21.3333333333333C5.3333333333333 18.384 7.7226666666667 16 10.6666666666667 16H64C66.944 16 69.3333333333333 18.384 69.3333333333333 21.3333333333333V80H5.3333333333333zM144 90.6666666666667V234.6666666666667C144 237.616 141.6106666666667 240 138.6666666666667 240H85.3333333333333C82.3893333333333 240 80 237.616 80 234.6666666666667V90.6666666666667H144zM106.6666666666667 202.6666666666667C106.6666666666667 205.616 109.056 208 112 208S117.3333333333333 205.616 117.3333333333333 202.6666666666667V160C117.3333333333333 157.0506666666667 114.944 154.6666666666667 112 154.6666666666667S106.6666666666667 157.0506666666667 106.6666666666667 160V202.6666666666667zM80 80V21.3333333333333C80 18.384 82.3893333333333 16 85.3333333333333 16H138.6666666666667C141.6106666666667 16 144 18.384 144 21.3333333333333V80H80zM177.8293333333334 78.5386666666667L186.592 20.5333333333334C186.9866666666667 17.8933333333333 189.264 16 191.856 16C192.1226666666667 16 192.3893333333333 16.0213333333333 192.6613333333333 16.0586666666667L245.3973333333333 24.0213333333333C246.7946666666667 24.2346666666667 248.0533333333333 24.9973333333333 248.8906666666667 26.1333333333333C249.7333333333333 27.2746666666667 250.0853333333333 28.6933333333333 249.872 30.096L241.1093333333333 88.1013333333333L177.8293333333334 78.5386666666667zM239.5146666666667 98.6506666666667L218.0053333333333 241.0346666666667C217.568 243.9466666666667 214.8586666666666 245.9146666666667 211.936 245.5146666666667L159.2 237.552C157.8026666666667 237.3386666666667 156.544 236.576 155.7066666666667 235.44C154.864 234.2986666666667 154.512 232.88 154.7253333333333 231.4773333333333L176.2346666666667 89.0933333333333L239.5146666666667 98.6506666666667zM190.3466666666666 209.888C193.264 210.288 195.9786666666667 208.32 196.416 205.408L202.7893333333333 163.2213333333334C203.232 160.3093333333333 201.2266666666666 157.5893333333334 198.3146666666666 157.1466666666667C198.0426666666666 157.1093333333333 197.776 157.088 197.5093333333333 157.088C194.9173333333333 157.088 192.64 158.9813333333334 192.2453333333333 161.6266666666667L185.872 203.8133333333333C185.4346666666667 206.7306666666667 187.44 209.4453333333334 190.3466666666666 209.888z" />
    <glyph glyph-name="info"
      unicode="&#xEA41;"
      horiz-adv-x="256" d="M117 249.85C83.813 246.398 49.924 226.84 29.809 199.531C18.867 184.677 9.937 163.471 6.906 145.148C5.491 136.589 5.491 114.411 6.906 105.852C9.962 87.378 18.945 65.991 29.795 51.357C75.595 -10.413 164.029 -17.377 218.487 36.5C229.15 47.05 235.477 55.687 242.171 68.836C262.8330000000001 109.418 259.963 156.77 234.524 195C213.951 225.919 180.8 245.726 142.5 249.983C132.312 251.116 129 251.098 117 249.85M141.637 233.934C154.018 232.554 163.975 229.966 174.238 225.462C219.818 205.458 246.383 156.909 238.465 108.084C234.798 85.47 225.333 66.635 209.194 49.829C184.269 23.874 147.878 11.605 113.5 17.567C76.898 23.915 47.704 45.769 32.106 78.5C24.79 93.851 21.839 107.015 21.796 124.5C21.75 143.445 25.133 158.279 33.202 174.5C49.385 207.035 82.611 230.078 118.887 233.926C129.988 235.104 131.143 235.104 141.637 233.934M125.415 201.626C115.602 197.202 114.767 184.345 123.898 178.263C135.009 170.862 148.994 184.297 142.044 195.696C138.354 201.747 131.28 204.27 125.415 201.626M125.635 157.927L123 155.855L123 107.362C123 77.642 123.379 58.16 123.979 57.039C124.517 56.033 126.358 54.722 128.069 54.126C131.96 52.769 136.618 54.865 138.043 58.613C139.385 62.144 139.309 151.056 137.961 154.603C135.857 160.138 130.337 161.626 125.635 157.927" />
    <glyph glyph-name="settings-gear"
      unicode="&#xEA42;"
      horiz-adv-x="256" d="M217.216 111.9626666666667A91.2 91.2 0 0 1 218.6666666666667 128V128A91.2 91.2 0 0 1 217.216 144.0266666666667L243.4933333333333 163.9306666666667A5.3333333333333 5.3333333333333 0 0 1 244.896 170.864L223.5626666666667 207.8133333333333A5.3333333333333 5.3333333333333 0 0 1 216.8693333333333 210.0586666666667L186.432 197.2213333333334A91.4293333333333 91.4293333333333 0 0 1 158.6986666666667 213.3066666666667L154.608 246A5.3333333333333 5.3333333333333 0 0 1 149.3333333333333 250.6666666666667H106.6666666666667A5.3333333333333 5.3333333333333 0 0 1 101.376 245.9946666666667L97.2853333333333 213.3013333333333A91.4293333333333 91.4293333333333 0 0 1 69.552 197.216L39.1306666666667 210.0533333333334A5.3333333333333 5.3333333333333 0 0 1 32.4373333333333 207.808L11.104 170.8586666666667A5.3333333333333 5.3333333333333 0 0 1 12.5066666666667 163.9253333333333L38.7786666666667 144.0266666666667A90.5813333333333 90.5813333333333 0 0 1 38.7786666666667 111.9413333333334L12.5066666666667 92.0586666666667A5.3333333333333 5.3333333333333 0 0 1 11.104 85.1253333333334L32.4373333333333 48.176A5.3333333333333 5.3333333333333 0 0 1 39.1306666666667 45.9306666666667L69.568 58.768A91.4293333333333 91.4293333333333 0 0 1 97.3013333333333 42.6826666666667L101.392 9.9893333333334A5.3333333333333 5.3333333333333 0 0 1 106.6666666666667 5.3333333333333H149.3333333333333A5.3333333333333 5.3333333333333 0 0 1 154.624 10.0053333333333L158.7146666666666 42.6986666666667A91.4293333333333 91.4293333333333 0 0 1 186.448 58.784L216.8853333333333 45.9466666666667A5.3333333333333 5.3333333333333 0 0 1 223.5786666666666 48.192L244.912 85.1413333333333A5.3333333333333 5.3333333333333 0 0 1 243.5093333333333 92.0746666666667zM128 90.6666666666667A37.3333333333333 37.3333333333333 0 1 0 165.3333333333333 128A37.3333333333333 37.3333333333333 0 0 0 128 90.6666666666667z" />
    <glyph glyph-name="circle-up"
      unicode="&#xEA43;"
      horiz-adv-x="256" d="M117 249.85C83.813 246.398 49.924 226.84 29.809 199.531C18.867 184.677 9.937 163.471 6.906 145.148C5.491 136.589 5.491 114.411 6.906 105.852C9.962 87.378 18.945 65.991 29.795 51.357C75.595 -10.413 164.029 -17.377 218.487 36.5C229.15 47.05 235.477 55.687 242.171 68.836C262.8330000000001 109.418 259.963 156.77 234.524 195C213.951 225.919 180.8 245.726 142.5 249.983C132.312 251.116 129 251.098 117 249.85M141.637 233.934C154.018 232.554 163.975 229.966 174.238 225.462C219.818 205.458 246.383 156.909 238.465 108.084C234.798 85.47 225.333 66.635 209.194 49.829C184.269 23.874 147.878 11.605 113.5 17.567C76.898 23.915 47.704 45.769 32.106 78.5C24.79 93.851 21.839 107.015 21.796 124.5C21.75 143.445 25.133 158.279 33.202 174.5C49.385 207.035 82.611 230.078 118.887 233.926C129.988 235.104 131.143 235.104 141.637 233.934M103.773 136.227C78.011 110.465 77.618 109.881 82.342 104.389C83.991 102.472 85.638 101.667 87.912 101.667C90.71 101.667 92.963 103.455 104.82 115.093C112.344 122.477 121.317 131.205 124.761 134.489L131.022 140.459L149.761 121.836C160.067 111.593 169.468 102.723 170.651 102.124C173.352 100.757 178.604 102.391 180.021 105.039C182.917 110.451 182.12 111.572 157.75 136.379C136.178 158.338 134.249 160.044 131.023 160.023C127.828 160.002 125.618 158.072 103.773 136.227" />
    <glyph glyph-name="circle-left"
      unicode="&#xEA44;"
      horiz-adv-x="256" d="M117 249.85C83.813 246.398 49.924 226.84 29.809 199.531C18.867 184.677 9.937 163.471 6.906 145.148C5.491 136.589 5.491 114.411 6.906 105.852C9.962 87.378 18.945 65.991 29.795 51.357C75.595 -10.413 164.029 -17.377 218.487 36.5C229.15 47.05 235.477 55.687 242.171 68.836C262.8330000000001 109.418 259.963 156.77 234.524 195C213.951 225.919 180.8 245.726 142.5 249.983C132.312 251.116 129 251.098 117 249.85M141.637 233.934C154.018 232.554 163.975 229.966 174.238 225.462C219.818 205.458 246.383 156.909 238.465 108.084C234.798 85.47 225.333 66.635 209.194 49.829C184.269 23.874 147.878 11.605 113.5 17.567C76.898 23.915 47.704 45.769 32.106 78.5C24.79 93.851 21.839 107.015 21.796 124.5C21.75 143.445 25.133 158.279 33.202 174.5C49.385 207.035 82.611 230.078 118.887 233.926C129.988 235.104 131.143 235.104 141.637 233.934M120.26 152.75C107.425 139.963 96.66 128.459 96.337 127.186C96.015 125.914 96.145 124.013 96.626 122.962C97.107 121.912 107.811 110.69 120.414 98.026C141.166 77.173 143.643 75 146.664 75C151.921 75 154.609 78.462 154.043 84.5C153.939 85.606 145.396 94.995 134.927 105.509C124.517 115.965 116 125.03 116 125.655C116 126.28 124.058 134.507 133.906 143.937C151.508 160.793 155.65 166.003 154.355 169.659C153.087 173.234 149.715 176 146.624 176C144.011 176 140.408 172.823 120.26 152.75" />
    <glyph glyph-name="circle-down"
      unicode="&#xEA45;"
      horiz-adv-x="256" d="M117 249.85C83.813 246.398 49.924 226.84 29.809 199.531C18.867 184.677 9.937 163.471 6.906 145.148C5.491 136.589 5.491 114.411 6.906 105.852C9.962 87.378 18.945 65.991 29.795 51.357C75.595 -10.413 164.029 -17.377 218.487 36.5C229.15 47.05 235.477 55.687 242.171 68.836C262.8330000000001 109.418 259.963 156.77 234.524 195C213.951 225.919 180.8 245.726 142.5 249.983C132.312 251.116 129 251.098 117 249.85M141.637 233.934C154.018 232.554 163.975 229.966 174.238 225.462C219.818 205.458 246.383 156.909 238.465 108.084C234.798 85.47 225.333 66.635 209.194 49.829C184.269 23.874 147.878 11.605 113.5 17.567C76.898 23.915 47.704 45.769 32.106 78.5C24.79 93.851 21.839 107.015 21.796 124.5C21.75 143.445 25.133 158.279 33.202 174.5C49.385 207.035 82.611 230.078 118.887 233.926C129.988 235.104 131.143 235.104 141.637 233.934M82.455 146.545C77.462 141.553 78.109 140.558 102.25 116.107C114.488 103.712 125.175 93.007 126 92.317C126.825 91.628 129.064 91.049 130.976 91.032C134.192 91.002 136.195 92.742 157.726 114.274C179.355 135.902 181 137.798 181 141.099C181 145.698 177.653 149 172.993 149C169.94 149 167.727 147.122 150.051 129.526L130.489 110.052L110.943 129.526C93.6 146.805 91.031 149 88.153 149C86.042 149 84.052 148.143 82.455 146.545" />
    <glyph glyph-name="circle-right"
      unicode="&#xEA46;"
      horiz-adv-x="256" d="M117 249.85C83.813 246.398 49.924 226.84 29.809 199.531C18.867 184.677 9.937 163.471 6.906 145.148C5.491 136.589 5.491 114.411 6.906 105.852C9.962 87.378 18.945 65.991 29.795 51.357C75.595 -10.413 164.029 -17.377 218.487 36.5C229.15 47.05 235.477 55.687 242.171 68.836C262.8330000000001 109.418 259.963 156.77 234.524 195C213.951 225.919 180.8 245.726 142.5 249.983C132.312 251.116 129 251.098 117 249.85M141.637 233.934C154.018 232.554 163.975 229.966 174.238 225.462C219.818 205.458 246.383 156.909 238.465 108.084C234.798 85.47 225.333 66.635 209.194 49.829C184.269 23.874 147.878 11.605 113.5 17.567C76.898 23.915 47.704 45.769 32.106 78.5C24.79 93.851 21.839 107.015 21.796 124.5C21.75 143.445 25.133 158.279 33.202 174.5C49.385 207.035 82.611 230.078 118.887 233.926C129.988 235.104 131.143 235.104 141.637 233.934M109.635 173.927C107.654 172.369 107 170.955 107 168.229C107 164.854 108.35 163.248 126.474 145.057L145.948 125.511L126.474 105.949C108.571 87.965 107 86.102 107 82.867C107 78.288 110.361 75 115.041 75C118.159 75 120.457 77.004 141.726 98.274C163.43 119.977 165 121.789 165 125.13C165 128.459 163.353 130.389 141.75 152.379C121.189 173.309 118.14 176.043 115.385 176.023C113.672 176.01 111.084 175.067 109.635 173.927" />
    <glyph glyph-name="menu-bars"
      unicode="&#xEA47;"
      horiz-adv-x="256" d="M10.6666666666667 138.6666666666667H245.3333333333333V117.3333333333334H10.6666666666667V138.6666666666667zM10.6666666666667 213.3333333333334H245.3333333333333V192H10.6666666666667V213.3333333333333zM10.6666666666667 64H245.3333333333333V42.6666666666667H10.6666666666667V64z" />
    <glyph glyph-name="floppy-disk"
      unicode="&#xEA48;"
      horiz-adv-x="256" d="M243.7706666666667 195.7706666666667L195.7706666666667 243.7706666666667A5.3333333333333 5.3333333333333 0 0 1 192 245.3333333333334H165.3333333333333V186.6666666666667A5.3333333333333 5.3333333333333 0 0 0 160 181.3333333333334H58.6666666666667A5.3333333333333 5.3333333333333 0 0 0 53.3333333333333 186.6666666666667V245.3333333333334H37.3333333333333A26.6986666666667 26.6986666666667 0 0 1 10.6666666666667 218.6666666666667V37.3333333333333A26.6986666666667 26.6986666666667 0 0 1 37.3333333333333 10.6666666666667H218.6666666666667A26.6986666666667 26.6986666666667 0 0 1 245.3333333333333 37.3333333333333V192A5.3333333333333 5.3333333333333 0 0 1 243.7706666666667 195.7706666666667zM202.6666666666667 58.6666666666667A5.3333333333333 5.3333333333333 0 0 0 197.3333333333333 53.3333333333333H58.6666666666667A5.3333333333333 5.3333333333333 0 0 0 53.3333333333333 58.6666666666667V122.6666666666667A5.3333333333333 5.3333333333333 0 0 0 58.6666666666667 128H197.3333333333333A5.3333333333333 5.3333333333333 0 0 0 202.6666666666667 122.6666666666667zM128 245.3333333333334H149.3333333333334V197.3333333333334H128V245.3333333333334z" />
    <glyph glyph-name="download"
      unicode="&#xEA49;"
      horiz-adv-x="256" d="M170.1333333333333 189.008A5.3333333333333 5.3333333333333 0 0 1 165.3333333333333 192H138.6666666666667V240A10.6666666666667 10.6666666666667 0 0 1 117.3333333333333 240V192H90.6666666666667A5.3333333333333 5.3333333333333 0 0 1 86.4586666666667 183.392L123.792 135.392A5.3333333333333 5.3333333333333 0 0 1 132.208 135.392L169.5413333333334 183.392A5.3333333333333 5.3333333333333 0 0 1 170.1333333333333 189.008zM250.3306666666667 108.5386666666667L218.3306666666667 193.872A5.3333333333333 5.3333333333333 0 0 1 213.3333333333333 197.3333333333334H192A5.3333333333333 5.3333333333333 0 0 1 192 186.6666666666667H209.6373333333334L237.6373333333334 112H18.3626666666667L46.3626666666667 186.6666666666667H64A5.3333333333333 5.3333333333333 0 0 1 64 197.3333333333333H42.6666666666667A5.3333333333333 5.3333333333333 0 0 1 37.6693333333333 193.872L5.6693333333333 108.5386666666666L5.3333333333333 106.6666666666667V26.6666666666667A10.6666666666667 10.6666666666667 0 0 1 16 16H240A10.6666666666667 10.6666666666667 0 0 1 250.6666666666667 26.6666666666667V106.6666666666667zM202.6666666666667 58.6666666666667H160A5.3333333333333 5.3333333333333 0 0 0 160 69.3333333333333H202.6666666666667A5.3333333333333 5.3333333333333 0 0 0 202.6666666666667 58.6666666666667z" />
    <glyph glyph-name="youtube"
      unicode="&#xEA4A;"
      horiz-adv-x="256" d="M253.3333333333333 179.2C253.3333333333333 179.2 250.6666666666667 196.8 243.2 204.8C233.6 214.9333333333333 222.4 214.9333333333333 217.6 215.4666666666667C181.8666666666667 218.1333333333333 128 218.1333333333333 128 218.1333333333333H128C128 218.1333333333333 74.1333333333333 218.1333333333333 38.4 215.4666666666667C33.6 214.9333333333333 22.4 214.9333333333333 12.8 204.8C5.3333333333333 196.8 2.6666666666667 179.2 2.6666666666667 179.2S0 158.4 0 137.6V118.4C0 97.6 2.6666666666667 76.8 2.6666666666667 76.8S5.3333333333333 59.2 12.8 51.2C22.4 41.0666666666667 35.2 41.0666666666667 41.0666666666667 40C61.3333333333333 37.8666666666667 128 37.3333333333334 128 37.3333333333334S181.8666666666667 37.3333333333334 217.6 40C222.4 40.5333333333334 233.6 40.5333333333334 243.2 50.6666666666667C250.6666666666667 58.6666666666667 253.3333333333333 76.2666666666667 253.3333333333333 76.2666666666667S256 97.0666666666667 256 117.8666666666667V137.0666666666667C256 158.4 253.3333333333333 179.2 253.3333333333333 179.2zM101.3333333333333 94.9333333333333L101.3333333333333 166.9333333333333L170.6666666666667 130.6666666666667L101.3333333333333 94.9333333333333z" />
    <glyph glyph-name="discord"
      unicode="&#xEA4B;"
      horiz-adv-x="256" d="M162.944 219.392L159.872 215.936C197.12 204.8 214.528 188.288 214.528 188.288C191.744 200.576 169.344 206.72 148.48 209.152C132.736 210.944 117.504 210.432 104.192 208.768C102.912 208.768 101.76 208.512 100.48 208.384C92.8 207.488 74.112 204.928 50.688 194.56C42.496 190.848 37.76 188.16 37.76 188.16S55.808 205.44 95.232 216.704L93.056 219.392S63.232 220.032 31.616 196.608C31.616 196.608 0 139.776 0 69.76C0 69.76 18.432 38.144 66.944 36.608C66.944 36.608 75.008 46.208 81.664 54.656C53.76 62.976 43.264 80.384 43.264 80.384S45.44 78.848 49.408 76.672C49.664 76.672 49.792 76.416 50.304 76.288C50.944 75.9040000000001 51.584 75.6480000000001 52.224 75.1360000000001C57.728 72.0640000000001 63.232 69.6320000000001 68.224 67.7120000000001C77.184 64.0000000000001 87.936 60.6720000000001 100.48 58.24C116.992 55.168 136.192 54.0160000000001 157.312 57.984C167.68 59.904 178.176 62.848 189.184 67.4560000000001C196.864 70.2720000000001 205.44 74.496 214.4 80.384C214.4 80.384 203.392 62.592 174.72 54.5280000000001C181.248 46.4640000000001 189.184 36.9920000000001 189.184 36.9920000000001C237.696 38.5280000000001 256.128 70.1440000000001 256.128 69.888C256.128 139.9040000000001 224.512 196.7360000000001 224.512 196.7360000000001C193.024 220.0320000000001 162.944 219.392 162.944 219.392zM87.04 90.112C74.752 90.112 64.64 100.864 64.64 114.304C64.64 127.744 74.496 138.496 87.04 138.496S109.696 127.744 109.44 114.304C109.44 100.864 99.584 90.112 87.04 90.112zM167.168 90.112C154.88 90.112 144.768 100.864 144.768 114.304C144.768 127.744 154.624 138.496 167.168 138.496C179.456 138.496 189.568 127.744 189.568 114.304C189.568 100.864 179.712 90.112 167.168 90.112z" />
    <glyph glyph-name="support"
      unicode="&#xEA4C;"
      horiz-adv-x="256" d="M154.6666666666667 37.3333333333333H90.6666666666667C87.7226666666667 37.3333333333333 85.3333333333333 34.944 85.3333333333333 32V26.6666666666667H74.6666666666667C59.9626666666667 26.6666666666667 48 38.6293333333333 48 53.3333333333333V59.632C44.3253333333333 60.2506666666666 40.768 61.184 37.3333333333333 62.4V53.3333333333333C37.3333333333333 32.7466666666667 54.08 16 74.6666666666667 16H85.3333333333333V10.6666666666667C85.3333333333333 7.7226666666667 87.7226666666667 5.3333333333333 90.6666666666667 5.3333333333333H154.6666666666667C157.6106666666667 5.3333333333333 160 7.7226666666666 160 10.6666666666667V32C160 34.944 157.6106666666667 37.3333333333333 154.6666666666667 37.3333333333333zM218.624 171.536C218.1493333333333 215.248 182.4853333333333 250.6666666666667 138.6666666666667 250.6666666666667H117.3333333333333C73.5146666666667 250.6666666666667 37.8506666666667 215.248 37.376 171.536C18.5386666666667 163.3013333333333 5.3333333333333 144.5066666666667 5.3333333333333 122.6666666666667C5.3333333333333 93.2586666666667 29.2586666666667 69.3333333333334 58.6666666666667 69.3333333333334C62.544 69.3333333333334 66.528 69.792 70.512 70.6933333333334C72.944 71.2426666666667 74.6666666666667 73.4026666666667 74.6666666666667 75.8933333333333V169.44C74.6666666666667 171.9306666666667 72.944 174.0906666666667 70.512 174.64C66.528 175.5413333333334 62.544 176 58.6666666666667 176C55.088 176 51.6 175.632 48.2186666666667 174.96C50.4533333333333 211.1893333333333 80.5493333333333 240 117.3333333333333 240H138.6666666666667C175.4506666666667 240 205.5466666666667 211.1893333333333 207.7813333333333 174.96C204.4 175.632 200.912 176 197.3333333333333 176C193.4506666666667 176 189.4666666666667 175.5413333333334 185.4826666666667 174.6346666666667C183.056 174.0853333333333 181.3333333333333 171.9253333333334 181.3333333333333 169.4346666666667V75.8933333333333C181.3333333333333 73.4026666666667 183.056 71.2426666666667 185.488 70.6933333333333C189.472 69.792 193.456 69.3333333333333 197.3333333333333 69.3333333333333C226.7413333333334 69.3333333333333 250.6666666666667 93.2586666666667 250.6666666666667 122.6666666666667C250.6666666666667 144.5066666666667 237.4613333333334 163.3013333333333 218.624 171.536z" />
    <glyph glyph-name="key"
      unicode="&#xEA4D;"
      horiz-adv-x="256" d="M245.3333333333333 250.6666666666667H197.3333333333333A5.3333333333333 5.3333333333333 0 0 1 193.5626666666667 249.104L97.52 153.0666666666667A72 72 0 1 1 152.0693333333333 101.8666666666667L169.104 118.9066666666667A5.3333333333333 5.3333333333333 0 0 1 170.6666666666667 122.6666666666667V149.3333333333334H197.3333333333333A5.3333333333333 5.3333333333333 0 0 1 202.6666666666667 154.6666666666667V181.3333333333334H229.3333333333333A5.3333333333333 5.3333333333333 0 0 1 233.104 182.896L249.104 198.896A5.3333333333333 5.3333333333333 0 0 1 250.6666666666667 202.6666666666667V245.3333333333334A5.3333333333333 5.3333333333333 0 0 1 245.3333333333333 250.6666666666667zM74.6666666666667 53.3333333333333A21.3333333333333 21.3333333333333 0 1 0 96 74.6666666666667A21.3333333333333 21.3333333333333 0 0 0 74.6666666666667 53.3333333333333z" />
    <glyph glyph-name="bulb"
      unicode="&#xEA4E;"
      horiz-adv-x="256" d="M127.234 249.456C125.62 248.778 124.007 247.461 123.65 246.529C122.619 243.844 122.896 219.063 123.979 217.039C125.489 214.218 130.703 212.748 133.849 214.257C138.325 216.403 139.08 219.297 138.777 233.148C138.546 243.697 138.2 246.128 136.69 247.793C134.336 250.39 130.894 250.995 127.234 249.456M42.174 213.686C40.845 212.27 40 210.083 40 208.057C40 205.242 41.298 203.416 48.605 195.949C58.112 186.233 61.694 184.084 65.492 185.814C69.074 187.447 71.348 191.462 70.549 194.743C70.158 196.346 65.971 201.371 60.544 206.75C52.416 214.806 50.768 216 47.78 216C45.486 216 43.628 215.233 42.174 213.686M200.731 206.232C192.588 198.058 191 195.955 191 193.343C191 188.709 193.972 185.6 198.4 185.6C201.664 185.6 203.034 186.565 211.113 194.55C221.097 204.418 222.461 206.657 220.936 210.669C219.592 214.204 217.165 215.929 213.481 215.968C210.975 215.995 208.81 214.342 200.731 206.232M114 195.445C105.625 193.646 93.112 187.425 85.524 181.286C58.878 159.729 51.2 122.486 67.101 91.923C73.605 79.421 88.987 64.485 99.25 60.707C100.788 60.141 101 58.561 101 47.681C101 34.62 102.032 29.589 105.039 27.979C106.087 27.418 117.165 27 130.98 27L155.091 27L157.545 29.455C159.91 31.82 160.001 32.413 160.034 45.705L160.068 59.5L167.418 63.764C191.386 77.668 205.108 105.467 201.921 133.664C200.119 149.605 194.38 162.244 183.818 173.536C173.258 184.824 162.271 191.478 148.286 195.055C139.218 197.374 123.798 197.549 114 195.445M149.461 178.15C166.083 172.163 179.545 157.727 184.574 140.5C186.861 132.663 186.856 118.485 184.562 110.48C179.92 94.281 167.801 80.667 151.676 73.535C148.614 72.181 145.635 70.187 145.055 69.103C144.475 68.019 144 61.702 144 55.066L144 43L130.5 43L117 43L117 55.845C117 70.624 117.33 69.997 107 74.869C87.348 84.137 75 103.373 75 124.716C75 141.32 79.558 152.562 90.975 164.114C98.881 172.114 106.57 176.796 116.275 179.521C123.971 181.682 141.687 180.95 149.461 178.15M8.881 131.993C5.975 130.295 4.632 125.539 6.16 122.354C8.281 117.93 11.298 117.029 24 117.029C36.567 117.029 39.724 117.941 41.743 122.151C43.252 125.297 41.782 130.511 38.961 132.021C36.623 133.272 11.029 133.248 8.881 131.993M221.174 130.686C218.434 127.769 218.324 122.676 220.944 120.056C223.601 117.399 227.957 116.753 240.495 117.156C250.768 117.487 251.269 117.607 253.588 120.306C256.668 123.889 256.654 127.437 253.545 130.545C251.175 132.916 250.614 133 237.22 133C224.013 133 223.244 132.889 221.174 130.686M104.789 14.637C102.112 12.602 100.888 8.424 102.064 5.331C104.019 0.19 104.691 0.066 130.798 0.032L155.095 0L157.548 2.646C160.735 6.085 160.734 10.357 157.545 13.545L155.091 16L130.795 15.968C112.448 15.944 106.081 15.618 104.789 14.637" />
    <glyph glyph-name="billboard"
      unicode="&#xEA4F;"
      horiz-adv-x="256" d="M32.008 238.684C26.952 237.074 18.438 228.401 17.102 223.5C16.347 220.732 16.009 187.418 16.006 115.306L16 11.112L18.342 8.389C21.555 4.654 26.445 4.654 29.658 8.389L32 11.112L32 115.101L32 219.091L34.455 221.545L36.909 224L138.5 224L240.091 224L242.545 226.455C245.986 229.896 245.904 235.144 242.365 237.927C239.737 239.995 239.484 240 137.615 239.898C65.701 239.826 34.467 239.467 32.008 238.684M93.174 210.686C91.307 208.698 91 207.214 91 200.186L91 192L77.25 191.994C69.688 191.991 61.905 191.546 59.956 191.004C55.544 189.779 50.283 184.474 48.983 179.942C48.395 177.892 48 155.584 48 124.468C48 72.472 48.002 72.42 50.25 68.006C51.849 64.866 53.776 62.924 56.907 61.294L61.315 59L146.907 59.016L232.5 59.033L236.406 61.266C238.554 62.495 241.254 64.77 242.406 66.323C244.463 69.095 244.505 70.107 244.772 123.823L245.044 178.5L242.772 182.956C241.152 186.133 239.234 188.071 236.093 189.706C232.096 191.786 230.35 192 217.343 192L203 192L203 198.351C203 205.729 201.55 210.635 198.961 212.021C195.779 213.724 191.477 213.137 189.174 210.686C187.307 208.698 187 207.214 187 200.186L187 192L147 192L107 192L107 198.351C107 205.729 105.55 210.635 102.961 212.021C99.779 213.724 95.477 213.137 93.174 210.686M229 125.5L229 75L146.5 75L64 75L64 125.5L64 176L146.5 176L229 176L229 125.5" />
    <glyph glyph-name="repeat"
      unicode="&#xEA50;"
      horiz-adv-x="256" d="M96 128A32 32 0 0 1 160 128A32 32 0 0 1 96 128M21.3333333333333 128C21.3333333333333 186.816 69.184 234.6666666666667 128 234.6666666666667C151.1306666666667 234.6666666666667 173.4773333333333 227.0933333333334 191.7653333333333 213.4666666666667L162.752 186.4426666666667C161.4506666666667 185.232 160.944 183.3866666666667 161.4506666666667 181.68C161.952 179.9733333333334 163.376 178.6933333333333 165.1253333333334 178.384L234.4746666666667 165.952C235.8613333333334 165.696 237.3813333333334 166.0906666666667 238.5066666666667 167.1413333333333C239.5893333333334 168.144 240.128 169.6053333333333 239.9733333333334 171.0773333333334L232.4853333333334 241.1306666666667C232.2986666666667 242.896 231.1253333333333 244.4106666666667 229.456 245.0293333333334C227.792 245.664 225.9146666666667 245.28 224.6133333333333 244.064L199.6693333333333 220.832C179.2853333333333 236.56 154.1013333333333 245.3333333333334 128 245.3333333333334C63.3013333333333 245.3333333333334 10.6666666666667 192.6986666666667 10.6666666666667 128C10.6666666666667 125.0506666666667 13.0506666666667 122.6666666666667 16 122.6666666666667S21.3333333333333 125.0506666666667 21.3333333333333 128zM240 133.3333333333334C237.0506666666667 133.3333333333334 234.6666666666667 130.9493333333334 234.6666666666667 128C234.6666666666667 69.184 186.816 21.3333333333334 128 21.3333333333334C104.8693333333334 21.3333333333334 82.5226666666667 28.9066666666667 64.2346666666667 42.5333333333334L93.248 69.5573333333334C94.5493333333333 70.768 95.056 72.6133333333334 94.5493333333333 74.32C94.048 76.0266666666667 92.624 77.3066666666667 90.8746666666667 77.616L21.5253333333333 90.048C20.1386666666667 90.304 18.6186666666667 89.9093333333333 17.4933333333333 88.8586666666667C16.4106666666667 87.856 15.872 86.3946666666667 16.0266666666667 84.9226666666667L23.5146666666667 14.864C23.7013333333333 13.0986666666667 24.8746666666667 11.584 26.544 10.9653333333333C28.208 10.3306666666667 30.0853333333333 10.7146666666667 31.3866666666667 11.9306666666667L56.3306666666667 35.1626666666667C76.7146666666667 19.44 101.8986666666667 10.6666666666667 128 10.6666666666667C192.6986666666667 10.6666666666667 245.3333333333333 63.3013333333333 245.3333333333333 128C245.3333333333333 130.9493333333334 242.9493333333333 133.3333333333334 240 133.3333333333334z" />
    <glyph glyph-name="leave"
      unicode="&#xEA51;"
      horiz-adv-x="256" d="M9.229 244.331C8.53 244.049 7.292 242.532 6.479 240.959C5.206 238.498 5.005 226.057 5.035 151.8C5.064 83.173 5.336 65.023 6.363 63.17C8.343 59.601 84.564 11 88.182 11C89.937 11 92.064 11.973 93.545 13.455C96 15.909 96 15.912 96 37.455L96 59L123 59C148.408 59 150.115 59.115 151.944 60.944C154.859 63.859 155.163 67.345 154.817 93.856C154.502 118.036 154.486 118.191 152.139 120.09C149.027 122.608 143.564 122.564 141 120C139.124 118.124 139 116.667 139 96.5L139 75L117.5 75L96 75L96 133.444L96 191.888L93.75 194.312C92.513 195.646 80.7 203.609 67.5 212.009C54.3 220.409 43.072 227.668 42.55 228.141C42.019 228.621 63.083 229 90.3 229L139 229L139 202.174C139 175.427 139.007 175.342 141.314 173.174C143.767 170.871 147.927 170.355 150.961 171.979C154.503 173.875 155 178.393 155 208.699C155 239.459 154.575 242.798 150.455 244.379C148.528 245.118 11.07 245.071 9.229 244.331M51.138 203.411L80 184.822L80 109.328C80 67.806 79.617 33.983 79.148 34.167C78.679 34.35 65.404 42.783 49.648 52.907L21 71.315L21 146.657C21 188.096 21.287 222 21.638 222C21.989 222 35.264 213.635 51.138 203.411M194.455 194.545C189.649 189.74 190.583 188.068 207.709 170.821L223.419 155L173.959 154.985C120.877 154.969 120.705 154.954 118.257 149.849C116.748 146.703 118.218 141.489 121.039 139.979C122.163 139.378 142.262 139 173.144 139L223.419 139L207.709 123.179C194.36 109.735 192 106.903 192 104.325C192 100.068 195.983 96 200.151 96C203.046 96 205.825 98.413 225.774 118.25C238.081 130.488 248.801 141.734 249.596 143.241C250.392 144.749 250.776 147.043 250.451 148.34C250.126 149.636 239.407 161.115 226.631 173.848C205.884 194.527 203.056 197 200.156 197C198.042 197 196.053 196.143 194.455 194.545" />
    <glyph glyph-name="image"
      unicode="&#xEA53;"
      horiz-adv-x="256" d="M18.455 237.545L16 235.091L16 125.5L16 15.909L18.455 13.455L20.909 11L130.78 11L240.651 11L242.826 13.314L245 15.629L245 125.742L245 235.855L242.365 237.927C239.736 239.996 239.493 240 130.32 240L20.909 240L18.455 237.545M229 125.5L229 27L130.5 27L32 27L32 125.5L32 224L130.5 224L229 224L229 125.5M89.332 206.212C79.103 202.552 72.11 194.663 69.974 184.375C65.88 164.656 84.082 146.223 103.931 149.987C126.021 154.176 135.524 180.762 120.878 197.401C112.854 206.517 100.122 210.074 89.332 206.212M104.938 190.173C111.628 186.585 113.859 178.087 109.737 171.898C104.67 164.291 95.586 163.214 89.321 169.479C83.247 175.553 84.674 185.391 92.304 190.044C96.308 192.485 100.546 192.529 104.938 190.173M154.371 154.014C153.2 153.541 143.75 141.442 133.371 127.127C122.992 112.812 114.177 101.077 113.783 101.05C113.388 101.022 107.855 105.994 101.488 112.097C91.12 122.034 89.627 123.125 87.205 122.536C85.717 122.174 83.554 120.892 82.398 119.689C79.142 116.299 48 58.332 48 55.661C48 54.358 49.104 52.101 50.452 50.646L52.905 48L130.498 48L208.091 48L210.648 50.557C212.581 52.49 213.114 53.9 212.83 56.329C212.624 58.096 201.455 80.385 188.01 105.858C161.311 156.443 161.108 156.734 154.371 154.014M174.213 97.75L191.794 64.5L131.238 64.242C97.932 64.1 70.496 64.171 70.269 64.398C69.941 64.726 88.288 99.279 89.667 100.93C89.864 101.166 94.903 96.553 100.864 90.68C112.497 79.216 115.369 77.858 119.561 81.842C120.628 82.856 129.15 94.307 138.5 107.289C147.85 120.272 155.755 130.918 156.066 130.947C156.377 130.976 164.543 116.037 174.213 97.75" />
    <glyph glyph-name="barcode"
      unicode="&#xEA55;"
      horiz-adv-x="256" d="M5.3333333333333 234.6666666666667H16V21.3333333333333H5.3333333333333V234.6666666666667zM240 234.6666666666667H250.6666666666667V21.3333333333333H240V234.6666666666667zM32 234.6666666666667H42.6666666666667V48H32V234.6666666666667zM213.3333333333333 234.6666666666667H224V48H213.3333333333333V234.6666666666667zM186.6666666666667 234.6666666666667H197.3333333333333V48H186.6666666666667V234.6666666666667zM58.6666666666667 234.6666666666667H96V48H58.6666666666667V234.6666666666667zM144 234.6666666666667H176V48H144V234.6666666666667zM112 234.6666666666667H128V48H112V234.6666666666667z" />
    <glyph glyph-name="b-meeting"
      unicode="&#xEA56;"
      horiz-adv-x="256" d="M248 252H112C109.788 252 108 250.208 108 248V136C108 134.464 108.884 133.06 110.264 132.396C110.82 132.132 111.412 132 112 132C112.892 132 113.776 132.3 114.5 132.876L153.404 164H248C250.212 164 252 165.792 252 168V248C252 250.208 250.212 252 248 252zM172 112A28 28 0 0 1 228 112A28 28 0 0 1 172 112M28 112A28 28 0 0 1 84 112A28 28 0 0 1 28 112M98.172 57.096C89.768 62.072 75.628 68 56 68C36.112 68 22.044 62.088 13.744 57.132C7.736 53.548 4 46.96 4 39.944V16C4 13.788 5.788 12 8 12H104C106.212 12 108 13.788 108 16V39.86C108 46.912 104.236 53.516 98.172 57.096zM242.172 57.096C233.768 62.072 219.628 68 200 68C180.112 68 166.044 62.088 157.744 57.132C151.736 53.548 148 46.96 148 39.944V16C148 13.788 149.788 12 152 12H248C250.212 12 252 13.788 252 16V39.86C252 46.912 248.236 53.516 242.172 57.096z" />
    <glyph glyph-name="shop"
      unicode="&#xEA57;"
      horiz-adv-x="256" d="M144 53.3333333333333C144 80.1813333333333 162.0533333333334 102.7626666666667 186.6666666666667 109.7333333333334V181.3333333333334C186.6666666666667 184.2773333333333 184.2826666666667 186.6666666666667 181.3333333333333 186.6666666666667H149.3333333333333V208C149.3333333333333 231.5253333333333 130.192 250.6666666666667 106.6666666666667 250.6666666666667S64 231.5253333333333 64 208V186.6666666666667H32C29.0506666666667 186.6666666666667 26.6666666666667 184.2773333333333 26.6666666666667 181.3333333333334V123.168L5.4293333333333 11.664C5.1306666666667 10.1066666666667 5.5466666666667 8.4906666666666 6.56 7.264C7.5733333333333 6.0426666666667 9.0773333333333 5.3333333333333 10.6666666666667 5.3333333333333H168.9973333333333C153.8986666666667 15.9466666666667 144 33.472 144 53.3333333333333zM138.6666666666667 186.6666666666667H74.6666666666667V208C74.6666666666667 225.648 89.0186666666667 240 106.6666666666667 240S138.6666666666667 225.648 138.6666666666667 208V186.6666666666667zM202.6666666666667 101.3333333333333C176.1546666666667 101.3333333333333 154.6666666666667 79.8453333333333 154.6666666666667 53.3333333333333S176.1546666666667 5.3333333333333 202.6666666666667 5.3333333333333S250.6666666666667 26.8213333333333 250.6666666666667 53.3333333333333S229.1786666666667 101.3333333333333 202.6666666666667 101.3333333333333zM224 48H208V32C208 29.056 205.6106666666667 26.6666666666667 202.6666666666667 26.6666666666667S197.3333333333333 29.056 197.3333333333333 32V48H181.3333333333333C178.3893333333333 48 176 50.3893333333333 176 53.3333333333333S178.3893333333333 58.6666666666667 181.3333333333333 58.6666666666667H197.3333333333333V74.6666666666667C197.3333333333333 77.6106666666667 199.7226666666667 80 202.6666666666667 80S208 77.6106666666667 208 74.6666666666667V58.6666666666667H224C226.944 58.6666666666667 229.3333333333334 56.2773333333334 229.3333333333334 53.3333333333333S226.944 48 224 48z" />
    <glyph glyph-name="handle"
      unicode="&#xEA58;"
      horiz-adv-x="256" d="M213.3333333333333 160H42.6666666666667V138.6666666666667H213.3333333333333V160zM42.6666666666667 96H213.3333333333333V117.3333333333334H42.6666666666667V96z" />
    <glyph glyph-name="coins"
      unicode="&#xEA59;"
      horiz-adv-x="256" d="M74.6666666666667 245.3333333333334C38.1813333333333 245.3333333333334 10.6666666666667 236.16 10.6666666666667 224S38.1813333333333 202.6666666666667 74.6666666666667 202.6666666666667S138.6666666666667 211.84 138.6666666666667 224S111.152 245.3333333333334 74.6666666666667 245.3333333333334zM181.3333333333333 42.6666666666667C157.8026666666667 42.6666666666667 131.5893333333333 46.5866666666667 117.3333333333333 56.5973333333334V32C117.3333333333333 19.84 144.848 10.6666666666667 181.3333333333333 10.6666666666667S245.3333333333333 19.84 245.3333333333333 32V56.5973333333333C231.0773333333333 46.5866666666667 204.864 42.6666666666667 181.3333333333333 42.6666666666667zM181.3333333333333 85.3333333333333C157.8026666666667 85.3333333333333 131.5893333333333 89.2533333333333 117.3333333333333 99.264V74.6666666666667C117.3333333333333 62.5066666666667 144.848 53.3333333333333 181.3333333333333 53.3333333333333S245.3333333333333 62.5066666666667 245.3333333333333 74.6666666666667V99.264C231.0773333333333 89.2533333333333 204.864 85.3333333333333 181.3333333333333 85.3333333333333zM181.3333333333333 128C157.8026666666667 128 131.5893333333333 131.92 117.3333333333333 141.9306666666667V117.3333333333334C117.3333333333333 105.1733333333334 144.848 96 181.3333333333333 96S245.3333333333333 105.1733333333334 245.3333333333333 117.3333333333334V141.9306666666667C231.0773333333333 131.92 204.864 128 181.3333333333333 128zM181.3333333333333 181.3333333333334C144.848 181.3333333333334 117.3333333333333 172.16 117.3333333333333 160S144.848 138.6666666666667 181.3333333333333 138.6666666666667S245.3333333333333 147.84 245.3333333333333 160S217.8186666666667 181.3333333333334 181.3333333333333 181.3333333333334zM74.6666666666667 160C86.624 160 97.584 161.0026666666667 106.9653333333333 162.752C108.6933333333333 174.9173333333333 121.6746666666667 182.6826666666667 138.6666666666667 187.12V205.9306666666667C124.4106666666667 195.92 98.1973333333333 192 74.6666666666667 192S24.9226666666667 195.92 10.6666666666667 205.9306666666667V181.3333333333334C10.6666666666667 169.1733333333334 38.1813333333333 160 74.6666666666667 160zM74.6666666666667 117.3333333333334C86.496 117.3333333333334 97.3546666666667 118.3093333333334 106.6666666666667 120.0266666666667V151.9626666666667C96.3306666666667 150.1813333333333 85.248 149.3333333333334 74.6666666666667 149.3333333333334C51.136 149.3333333333334 24.9226666666667 153.2533333333333 10.6666666666667 163.264V138.6666666666667C10.6666666666667 126.5066666666667 38.1813333333333 117.3333333333334 74.6666666666667 117.3333333333334zM74.6666666666667 74.6666666666667C86.496 74.6666666666667 97.3546666666667 75.6426666666667 106.6666666666667 77.36V109.296C96.3306666666667 107.5146666666667 85.248 106.6666666666667 74.6666666666667 106.6666666666667C51.136 106.6666666666667 24.9226666666667 110.5866666666667 10.6666666666667 120.5973333333334V96C10.6666666666667 83.84 38.1813333333333 74.6666666666667 74.6666666666667 74.6666666666667zM106.6666666666667 66.6293333333334C96.3306666666667 64.848 85.248 64 74.6666666666667 64C51.136 64 24.9226666666667 67.92 10.6666666666667 77.9306666666667V53.3333333333333C10.6666666666667 41.1733333333333 38.1813333333333 32 74.6666666666667 32C86.496 32 97.3546666666667 32.976 106.6666666666667 34.6933333333333V66.6293333333334z" />
    <glyph glyph-name="discount"
      unicode="&#xEA5A;"
      horiz-adv-x="256" d="M53.3226666666667 10.6666666666667C51.2106666666667 10.6666666666667 49.0773333333333 11.2906666666667 47.216 12.592C42.3893333333333 15.9733333333334 41.216 22.624 44.592 27.4506666666667L193.9253333333333 240.784C197.312 245.6053333333334 203.9626666666666 246.784 208.7786666666666 243.408C213.6053333333333 240.0266666666667 214.7786666666666 233.376 211.4026666666666 228.5493333333333L62.0693333333333 15.216C59.9946666666667 12.2506666666667 56.688 10.6666666666667 53.3226666666667 10.6666666666667zM66.6666666666667 144C41.6693333333333 144 21.3333333333333 164.336 21.3333333333333 189.3333333333334V205.3333333333334C21.3333333333333 230.3306666666667 41.6693333333333 250.6666666666667 66.6666666666667 250.6666666666667S112 230.3306666666667 112 205.3333333333334V189.3333333333334C112 164.336 91.664 144 66.6666666666667 144zM66.6666666666667 229.3333333333334C53.4346666666667 229.3333333333334 42.6666666666667 218.5653333333334 42.6666666666667 205.3333333333334V189.3333333333334C42.6666666666667 176.1013333333334 53.4346666666667 165.3333333333334 66.6666666666667 165.3333333333334S90.6666666666667 176.1013333333334 90.6666666666667 189.3333333333334V205.3333333333334C90.6666666666667 218.5653333333334 79.8986666666667 229.3333333333334 66.6666666666667 229.3333333333334zM189.3333333333333 5.3333333333333C164.336 5.3333333333333 144 25.6693333333333 144 50.6666666666667V66.6666666666667C144 91.664 164.336 112 189.3333333333333 112S234.6666666666667 91.664 234.6666666666667 66.6666666666667V50.6666666666667C234.6666666666667 25.6693333333334 214.3306666666667 5.3333333333333 189.3333333333333 5.3333333333333zM189.3333333333333 90.6666666666667C176.1013333333333 90.6666666666667 165.3333333333333 79.8986666666667 165.3333333333333 66.6666666666667V50.6666666666667C165.3333333333333 37.4346666666667 176.1013333333333 26.6666666666667 189.3333333333333 26.6666666666667S213.3333333333333 37.4346666666667 213.3333333333333 50.6666666666667V66.6666666666667C213.3333333333333 79.8986666666667 202.5653333333334 90.6666666666667 189.3333333333333 90.6666666666667z" />
    <glyph glyph-name="supply"
      unicode="&#xEA5B;"
      horiz-adv-x="256" d="M253.696 84.48L242.944 87.424C241.28 87.808 238.464 88.32 236.8 88.32L231.936 87.68C230.272 87.168 227.712 86.016 226.304 85.248L154.24 43.52C149.12 49.664 140.672 51.968 133.248 49.152L40.32 210.688C39.424 212.224 37.888 214.528 36.864 215.936L34.176 219.136C32.896 220.288 30.848 222.208 29.44 223.232L4.992 242.56C3.584 243.584 1.664 243.328 0.64 242.048C-0.384 240.64 -0.128 238.72 1.152 237.696L25.6 218.368C27.008 217.344 30.592 214.016 31.488 212.736C32.512 211.456 33.92 209.152 34.816 207.616L127.872 46.08C120.96 40.32 118.912 30.208 123.52 22.272C128.64 13.312 140.16 10.24 149.12 15.36C157.184 19.968 160.384 29.696 157.312 38.144L229.248 79.744C230.784 80.64 234.496 82.176 235.776 82.176S239.488 81.792 241.152 81.28L251.904 78.336C253.568 77.952 255.2320000000001 78.848 255.7440000000001 80.512C256.384 82.304 255.3600000000001 84.096 253.6960000000001 84.48zM146.048 20.736C140.032 17.28 132.48 19.328 129.024 25.344C126.08 30.336 127.104 36.608 131.072 40.576C131.84 41.344 132.608 41.984 133.632 42.496C134.528 43.008 135.552 43.392 136.576 43.648C140.928 44.8 145.664 43.648 148.864 40.32C149.632 39.552 150.272 38.784 150.784 37.76C151.296 36.864 151.68 35.84 151.936 34.816C153.344 29.568 151.168 23.68 146.048 20.736zM170.24 166.784L102.656 127.616C98.944 125.44 97.664 120.704 99.84 116.864L135.68 54.656C142.592 55.936 149.76 54.016 155.136 49.408L217.216 85.376C220.928 87.552 222.208 92.288 220.032 96.128L180.992 163.968C178.816 167.68 173.952 168.96 170.24 166.784zM73.984 161.664C71.808 165.376 73.088 170.24 76.8 172.416L103.808 188.032C107.52 190.208 112.384 188.928 114.432 185.216L130.048 158.08C132.224 154.368 130.944 149.504 127.232 147.328L100.224 131.712C96.512 129.536 91.648 130.816 89.6 134.528L73.984 161.664z" />
    </font>
</defs>
</svg>
